<svg id="my-svg" width="100%" xmlns="http://www.w3.org/2000/svg" xmlns:xlink="http://www.w3.org/1999/xlink" class="flowchart" style="max-width: 1792px; background-color: transparent;" viewBox="0 0 1792 772.5" role="graphics-document document" aria-roledescription="flowchart-v2"><style>#my-svg{font-family:system-ui,-apple-system,sans-serif;font-size:14px;fill:#000000;}@keyframes edge-animation-frame{from{stroke-dashoffset:0;}}@keyframes dash{to{stroke-dashoffset:0;}}#my-svg .edge-animation-slow{stroke-dasharray:9,5!important;stroke-dashoffset:900;animation:dash 50s linear infinite;stroke-linecap:round;}#my-svg .edge-animation-fast{stroke-dasharray:9,5!important;stroke-dashoffset:900;animation:dash 20s linear infinite;stroke-linecap:round;}#my-svg .error-icon{fill:#552222;}#my-svg .error-text{fill:#552222;stroke:#552222;}#my-svg .edge-thickness-normal{stroke-width:1px;}#my-svg .edge-thickness-thick{stroke-width:3.5px;}#my-svg .edge-pattern-solid{stroke-dasharray:0;}#my-svg .edge-thickness-invisible{stroke-width:0;fill:none;}#my-svg .edge-pattern-dashed{stroke-dasharray:3;}#my-svg .edge-pattern-dotted{stroke-dasharray:2;}#my-svg .marker{fill:#666;stroke:#666;}#my-svg .marker.cross{stroke:#666;}#my-svg svg{font-family:system-ui,-apple-system,sans-serif;font-size:14px;}#my-svg p{margin:0;}#my-svg .label{font-family:system-ui,-apple-system,sans-serif;color:#000000;}#my-svg .cluster-label text{fill:#333;}#my-svg .cluster-label span{color:#333;}#my-svg .cluster-label span p{background-color:transparent;}#my-svg .label text,#my-svg span{fill:#000000;color:#000000;}#my-svg .node rect,#my-svg .node circle,#my-svg .node ellipse,#my-svg .node polygon,#my-svg .node path{fill:#eee;stroke:#999;stroke-width:1px;}#my-svg .rough-node .label text,#my-svg .node .label text,#my-svg .image-shape .label,#my-svg .icon-shape .label{text-anchor:middle;}#my-svg .node .katex path{fill:#000;stroke:#000;stroke-width:1px;}#my-svg .rough-node .label,#my-svg .node .label,#my-svg .image-shape .label,#my-svg .icon-shape .label{text-align:center;}#my-svg .node.clickable{cursor:pointer;}#my-svg .root .anchor path{fill:#666!important;stroke-width:0;stroke:#666;}#my-svg .arrowheadPath{fill:#333333;}#my-svg .edgePath .path{stroke:#666;stroke-width:2.0px;}#my-svg .flowchart-link{stroke:#666;fill:none;}#my-svg .edgeLabel{background-color:white;text-align:center;}#my-svg .edgeLabel p{background-color:white;}#my-svg .edgeLabel rect{opacity:0.5;background-color:white;fill:white;}#my-svg .labelBkg{background-color:rgba(255, 255, 255, 0.5);}#my-svg .cluster rect{fill:hsl(0, 0%, 98.9215686275%);stroke:#707070;stroke-width:1px;}#my-svg .cluster text{fill:#333;}#my-svg .cluster span{color:#333;}#my-svg div.mermaidTooltip{position:absolute;text-align:center;max-width:200px;padding:2px;font-family:system-ui,-apple-system,sans-serif;font-size:12px;background:hsl(-160, 0%, 93.3333333333%);border:1px solid #707070;border-radius:2px;pointer-events:none;z-index:100;}#my-svg .flowchartTitleText{text-anchor:middle;font-size:18px;fill:#000000;}#my-svg rect.text{fill:none;stroke-width:0;}#my-svg .icon-shape,#my-svg .image-shape{background-color:white;text-align:center;}#my-svg .icon-shape p,#my-svg .image-shape p{background-color:white;padding:2px;}#my-svg .icon-shape rect,#my-svg .image-shape rect{opacity:0.5;background-color:white;fill:white;}#my-svg .label-icon{display:inline-block;height:1em;overflow:visible;vertical-align:-0.125em;}#my-svg .node .label-icon path{fill:currentColor;stroke:revert;stroke-width:revert;}#my-svg :root{--mermaid-font-family:"trebuchet ms",verdana,arial,sans-serif;}</style><g><marker id="my-svg_flowchart-v2-pointEnd" class="marker flowchart-v2" viewBox="0 0 10 10" refX="5" refY="5" markerUnits="userSpaceOnUse" markerWidth="8" markerHeight="8" orient="auto"><path d="M 0 0 L 10 5 L 0 10 z" class="arrowMarkerPath" style="stroke-width: 1; stroke-dasharray: 1, 0;"/></marker><marker id="my-svg_flowchart-v2-pointStart" class="marker flowchart-v2" viewBox="0 0 10 10" refX="4.5" refY="5" markerUnits="userSpaceOnUse" markerWidth="8" markerHeight="8" orient="auto"><path d="M 0 5 L 10 10 L 10 0 z" class="arrowMarkerPath" style="stroke-width: 1; stroke-dasharray: 1, 0;"/></marker><marker id="my-svg_flowchart-v2-circleEnd" class="marker flowchart-v2" viewBox="0 0 10 10" refX="11" refY="5" markerUnits="userSpaceOnUse" markerWidth="11" markerHeight="11" orient="auto"><circle cx="5" cy="5" r="5" class="arrowMarkerPath" style="stroke-width: 1; stroke-dasharray: 1, 0;"/></marker><marker id="my-svg_flowchart-v2-circleStart" class="marker flowchart-v2" viewBox="0 0 10 10" refX="-1" refY="5" markerUnits="userSpaceOnUse" markerWidth="11" markerHeight="11" orient="auto"><circle cx="5" cy="5" r="5" class="arrowMarkerPath" style="stroke-width: 1; stroke-dasharray: 1, 0;"/></marker><marker id="my-svg_flowchart-v2-crossEnd" class="marker cross flowchart-v2" viewBox="0 0 11 11" refX="12" refY="5.2" markerUnits="userSpaceOnUse" markerWidth="11" markerHeight="11" orient="auto"><path d="M 1,1 l 9,9 M 10,1 l -9,9" class="arrowMarkerPath" style="stroke-width: 2; stroke-dasharray: 1, 0;"/></marker><marker id="my-svg_flowchart-v2-crossStart" class="marker cross flowchart-v2" viewBox="0 0 11 11" refX="-1" refY="5.2" markerUnits="userSpaceOnUse" markerWidth="11" markerHeight="11" orient="auto"><path d="M 1,1 l 9,9 M 10,1 l -9,9" class="arrowMarkerPath" style="stroke-width: 2; stroke-dasharray: 1, 0;"/></marker><g class="root"><g class="clusters"><g class="cluster" id="Driven" data-look="classic"><rect style="" x="1514.59375" y="169" width="269.40625" height="525"/><g class="cluster-label" transform="translate(1597.53125, 169)"><foreignObject width="103.53125" height="21"><div xmlns="http://www.w3.org/1999/xhtml" style="display: table-cell; white-space: nowrap; line-height: 1.5; max-width: 200px; text-align: center;"><span class="nodeLabel"><p>Driven Adapters</p></span></div></foreignObject></g></g><g class="cluster" id="Ports" data-look="classic"><rect style="" x="341.625" y="169" width="1122.96875" height="555"/><g class="cluster-label" transform="translate(846.7421875, 169)"><foreignObject width="112.734375" height="21"><div xmlns="http://www.w3.org/1999/xhtml" style="display: table-cell; white-space: nowrap; line-height: 1.5; max-width: 200px; text-align: center;"><span class="nodeLabel"><p>Ports (interfaces)</p></span></div></foreignObject></g></g><g class="cluster" id="Driving" data-look="classic"><rect style="" x="8" y="270.25" width="283.625" height="494.25"/><g class="cluster-label" transform="translate(95.9921875, 270.25)"><foreignObject width="107.640625" height="21"><div xmlns="http://www.w3.org/1999/xhtml" style="display: table-cell; white-space: nowrap; line-height: 1.5; max-width: 200px; text-align: center;"><span class="nodeLabel"><p>Driving Adapters</p></span></div></foreignObject></g></g></g><g class="edgePaths"><path d="M182.391,447L200.597,461.25C218.802,475.5,255.214,504,277.586,518.25C299.958,532.5,308.292,532.5,316.625,532.5C324.958,532.5,333.292,532.5,355.056,532.5C376.82,532.5,412.016,532.5,447.211,532.5C482.406,532.5,517.602,532.5,593.783,532.5C669.964,532.5,787.13,532.5,904.297,532.5C1021.464,532.5,1138.63,532.5,1203.409,532.5C1268.188,532.5,1280.578,532.5,1286.773,532.5L1292.969,532.5" id="L_CLI_GP_0" class="edge-thickness-normal edge-pattern-solid edge-thickness-normal edge-pattern-solid flowchart-link" style=";" data-edge="true" data-et="edge" data-id="L_CLI_GP_0" data-points="W3sieCI6MTgyLjM5MTA0NzI5NzI5NzMsInkiOjQ0N30seyJ4IjoyOTEuNjI1LCJ5Ijo1MzIuNX0seyJ4IjozMTYuNjI1LCJ5Ijo1MzIuNX0seyJ4IjozNDEuNjI1LCJ5Ijo1MzIuNX0seyJ4Ijo0NDcuMjEwOTM3NSwieSI6NTMyLjV9LHsieCI6NTUyLjc5Njg3NSwieSI6NTMyLjV9LHsieCI6OTA0LjI5Njg3NSwieSI6NTMyLjV9LHsieCI6MTI1NS43OTY4NzUsInkiOjUzMi41fSx7IngiOjEyOTYuOTY4NzUsInkiOjUzMi41fV0=" marker-end="url(#my-svg_flowchart-v2-pointEnd)"/><path d="M243.359,421.5L251.404,421.5C259.448,421.5,275.536,421.5,287.747,421.5C299.958,421.5,308.292,421.5,316.625,421.5C324.958,421.5,333.292,421.5,343.889,421.5C354.487,421.5,367.349,421.5,373.78,421.5L380.211,421.5" id="L_CLI_IP_0" class="edge-thickness-normal edge-pattern-solid edge-thickness-normal edge-pattern-solid flowchart-link" style=";" data-edge="true" data-et="edge" data-id="L_CLI_IP_0" data-points="W3sieCI6MjQzLjM1OTM3NSwieSI6NDIxLjV9LHsieCI6MjkxLjYyNSwieSI6NDIxLjV9LHsieCI6MzE2LjYyNSwieSI6NDIxLjV9LHsieCI6MzQxLjYyNSwieSI6NDIxLjV9LHsieCI6Mzg0LjIxMDkzNzUsInkiOjQyMS41fV0=" marker-end="url(#my-svg_flowchart-v2-pointEnd)"/><path d="M185.617,396L203.285,383.417C220.953,370.833,256.289,345.667,278.124,333.083C299.958,320.5,308.292,320.5,316.625,320.5C324.958,320.5,333.292,320.5,340.958,320.5C348.625,320.5,355.625,320.5,359.125,320.5L362.625,320.5" id="L_CLI_SP_0" class="edge-thickness-normal edge-pattern-solid edge-thickness-normal edge-pattern-solid flowchart-link" style=";" data-edge="true" data-et="edge" data-id="L_CLI_SP_0" data-points="W3sieCI6MTg1LjYxNjY0NjAzOTYwMzk1LCJ5IjozOTZ9LHsieCI6MjkxLjYyNSwieSI6MzIwLjV9LHsieCI6MzE2LjYyNSwieSI6MzIwLjV9LHsieCI6MzQxLjYyNSwieSI6MzIwLjV9LHsieCI6MzY2LjYyNSwieSI6MzIwLjV9XQ==" marker-end="url(#my-svg_flowchart-v2-pointEnd)"/><path d="M266.625,617.917L270.792,618.806C274.958,619.695,283.292,621.472,291.625,622.361C299.958,623.25,308.292,623.25,316.625,623.25C324.958,623.25,333.292,623.25,342.068,623.25C350.844,623.25,360.063,623.25,364.672,623.25L369.281,623.25" id="L_TUI_RP_0" class="edge-thickness-normal edge-pattern-solid edge-thickness-normal edge-pattern-solid flowchart-link" style=";" data-edge="true" data-et="edge" data-id="L_TUI_RP_0" data-points="W3sieCI6MjY2LjYyNSwieSI6NjE3LjkxNzI1NDI5NzA0NzJ9LHsieCI6MjkxLjYyNSwieSI6NjIzLjI1fSx7IngiOjMxNi42MjUsInkiOjYyMy4yNX0seyJ4IjozNDEuNjI1LCJ5Ijo2MjMuMjV9LHsieCI6MzczLjI4MTI1LCJ5Ijo2MjMuMjV9XQ==" marker-end="url(#my-svg_flowchart-v2-pointEnd)"/><path d="M239.102,567.5L247.856,565C256.61,562.5,274.117,557.5,287.038,555C299.958,552.5,308.292,552.5,316.625,552.5C324.958,552.5,333.292,552.5,355.056,552.5C376.82,552.5,412.016,552.5,447.211,552.5C482.406,552.5,517.602,552.5,593.783,552.5C669.964,552.5,787.13,552.5,904.297,552.5C1021.464,552.5,1138.63,552.5,1203.421,551.311C1268.211,550.122,1280.626,547.743,1286.833,546.554L1293.04,545.365" id="L_TUI_GP_0" class="edge-thickness-normal edge-pattern-solid edge-thickness-normal edge-pattern-solid flowchart-link" style=";" data-edge="true" data-et="edge" data-id="L_TUI_GP_0" data-points="W3sieCI6MjM5LjEwMTg1MTg1MTg1MTg1LCJ5Ijo1NjcuNX0seyJ4IjoyOTEuNjI1LCJ5Ijo1NTIuNX0seyJ4IjozMTYuNjI1LCJ5Ijo1NTIuNX0seyJ4IjozNDEuNjI1LCJ5Ijo1NTIuNX0seyJ4Ijo0NDcuMjEwOTM3NSwieSI6NTUyLjV9LHsieCI6NTUyLjc5Njg3NSwieSI6NTUyLjV9LHsieCI6OTA0LjI5Njg3NSwieSI6NTUyLjV9LHsieCI6MTI1NS43OTY4NzUsInkiOjU1Mi41fSx7IngiOjEyOTYuOTY4NzUsInkiOjU0NC42MTI1NDk1NzcxOTA3fV0=" marker-end="url(#my-svg_flowchart-v2-pointEnd)"/><path d="M250.055,704L256.983,704C263.911,704,277.768,704,288.863,704C299.958,704,308.292,704,316.625,704C324.958,704,333.292,704,355.056,704C376.82,704,412.016,704,447.211,704C482.406,704,517.602,704,593.783,704C669.964,704,787.13,704,904.297,704C1021.464,704,1138.63,704,1211.679,680.236C1284.729,656.472,1313.661,608.944,1328.127,585.181L1342.593,561.417" id="L_DAEMON_GP_0" class="edge-thickness-normal edge-pattern-solid edge-thickness-normal edge-pattern-solid flowchart-link" style=";" data-edge="true" data-et="edge" data-id="L_DAEMON_GP_0" data-points="W3sieCI6MjUwLjA1NDY4NzUsInkiOjcwNH0seyJ4IjoyOTEuNjI1LCJ5Ijo3MDR9LHsieCI6MzE2LjYyNSwieSI6NzA0fSx7IngiOjM0MS42MjUsInkiOjcwNH0seyJ4Ijo0NDcuMjEwOTM3NSwieSI6NzA0fSx7IngiOjU1Mi43OTY4NzUsInkiOjcwNH0seyJ4Ijo5MDQuMjk2ODc1LCJ5Ijo3MDR9LHsieCI6MTI1NS43OTY4NzUsInkiOjcwNH0seyJ4IjoxMzQ0LjY3MjUxMjc1NTEwMiwieSI6NTU4fV0=" marker-end="url(#my-svg_flowchart-v2-pointEnd)"/><path d="M1423.422,532.5L1430.284,532.5C1437.146,532.5,1450.87,532.5,1461.898,532.5C1472.927,532.5,1481.26,532.5,1489.594,532.5C1497.927,532.5,1506.26,532.5,1516.819,532.5C1527.378,532.5,1540.161,532.5,1546.553,532.5L1552.945,532.5" id="L_GP_WGA_0" class="edge-thickness-normal edge-pattern-dotted edge-thickness-normal edge-pattern-solid flowchart-link" style=";" data-edge="true" data-et="edge" data-id="L_GP_WGA_0" data-points="W3sieCI6MTQyMy40MjE4NzUsInkiOjUzMi41fSx7IngiOjE0NjQuNTkzNzUsInkiOjUzMi41fSx7IngiOjE0ODkuNTkzNzUsInkiOjUzMi41fSx7IngiOjE1MTQuNTkzNzUsInkiOjUzMi41fSx7IngiOjE1NTYuOTQ1MzEyNSwieSI6NTMyLjV9XQ==" marker-end="url(#my-svg_flowchart-v2-pointEnd)"/><path d="M510.211,427.467L517.309,428.139C524.406,428.811,538.602,430.156,604.283,430.828C669.964,431.5,787.13,431.5,904.297,431.5C1021.464,431.5,1138.63,431.5,1214.613,431.5C1290.596,431.5,1325.396,431.5,1360.195,431.5C1394.995,431.5,1429.794,431.5,1451.361,431.5C1472.927,431.5,1481.26,431.5,1489.594,431.5C1497.927,431.5,1506.26,431.5,1516.88,431.5C1527.5,431.5,1540.406,431.5,1546.859,431.5L1553.313,431.5" id="L_IP_WIA_0" class="edge-thickness-normal edge-pattern-dotted edge-thickness-normal edge-pattern-solid flowchart-link" style=";" data-edge="true" data-et="edge" data-id="L_IP_WIA_0" data-points="W3sieCI6NTEwLjIxMDkzNzUsInkiOjQyNy40NjY3MDM2NjI1OTcxfSx7IngiOjU1Mi43OTY4NzUsInkiOjQzMS41fSx7IngiOjkwNC4yOTY4NzUsInkiOjQzMS41fSx7IngiOjEyNTUuNzk2ODc1LCJ5Ijo0MzEuNX0seyJ4IjoxMzYwLjE5NTMxMjUsInkiOjQzMS41fSx7IngiOjE0NjQuNTkzNzUsInkiOjQzMS41fSx7IngiOjE0ODkuNTkzNzUsInkiOjQzMS41fSx7IngiOjE1MTQuNTkzNzUsInkiOjQzMS41fSx7IngiOjE1NTcuMzEyNSwieSI6NDMxLjV9XQ==" marker-end="url(#my-svg_flowchart-v2-pointEnd)"/><path d="M527.797,328.132L531.964,328.527C536.13,328.922,544.464,329.711,607.214,330.105C669.964,330.5,787.13,330.5,904.297,330.5C1021.464,330.5,1138.63,330.5,1214.613,330.5C1290.596,330.5,1325.396,330.5,1360.195,330.5C1394.995,330.5,1429.794,330.5,1451.361,330.5C1472.927,330.5,1481.26,330.5,1489.594,330.5C1497.927,330.5,1506.26,330.5,1513.927,330.5C1521.594,330.5,1528.594,330.5,1532.094,330.5L1535.594,330.5" id="L_SP_WSA_0" class="edge-thickness-normal edge-pattern-dotted edge-thickness-normal edge-pattern-solid flowchart-link" style=";" data-edge="true" data-et="edge" data-id="L_SP_WSA_0" data-points="W3sieCI6NTI3Ljc5Njg3NSwieSI6MzI4LjEzMjI2MDQ1MTM1MDM2fSx7IngiOjU1Mi43OTY4NzUsInkiOjMzMC41fSx7IngiOjkwNC4yOTY4NzUsInkiOjMzMC41fSx7IngiOjEyNTUuNzk2ODc1LCJ5IjozMzAuNX0seyJ4IjoxMzYwLjE5NTMxMjUsInkiOjMzMC41fSx7IngiOjE0NjQuNTkzNzUsInkiOjMzMC41fSx7IngiOjE0ODkuNTkzNzUsInkiOjMzMC41fSx7IngiOjE1MTQuNTkzNzUsInkiOjMzMC41fSx7IngiOjE1MzkuNTkzNzUsInkiOjMzMC41fV0=" marker-end="url(#my-svg_flowchart-v2-pointEnd)"/><path d="M521.141,630.427L526.417,630.939C531.693,631.451,542.245,632.476,606.104,632.988C669.964,633.5,787.13,633.5,904.297,633.5C1021.464,633.5,1138.63,633.5,1214.613,633.5C1290.596,633.5,1325.396,633.5,1360.195,633.5C1394.995,633.5,1429.794,633.5,1451.361,633.5C1472.927,633.5,1481.26,633.5,1489.594,633.5C1497.927,633.5,1506.26,633.5,1515.07,633.5C1523.88,633.5,1533.167,633.5,1537.81,633.5L1542.453,633.5" id="L_RP_WRA_0" class="edge-thickness-normal edge-pattern-dotted edge-thickness-normal edge-pattern-solid flowchart-link" style=";" data-edge="true" data-et="edge" data-id="L_RP_WRA_0" data-points="W3sieCI6NTIxLjE0MDYyNSwieSI6NjMwLjQyNjg5NjA0MTQzNTV9LHsieCI6NTUyLjc5Njg3NSwieSI6NjMzLjV9LHsieCI6OTA0LjI5Njg3NSwieSI6NjMzLjV9LHsieCI6MTI1NS43OTY4NzUsInkiOjYzMy41fSx7IngiOjEzNjAuMTk1MzEyNSwieSI6NjMzLjV9LHsieCI6MTQ2NC41OTM3NSwieSI6NjMzLjV9LHsieCI6MTQ4OS41OTM3NSwieSI6NjMzLjV9LHsieCI6MTUxNC41OTM3NSwieSI6NjMzLjV9LHsieCI6MTU0Ni40NTMxMjUsInkiOjYzMy41fV0=" marker-end="url(#my-svg_flowchart-v2-pointEnd)"/><path d="M1439.594,229.5L1443.76,229.5C1447.927,229.5,1456.26,229.5,1464.594,229.5C1472.927,229.5,1481.26,229.5,1489.594,229.5C1497.927,229.5,1506.26,229.5,1515.447,229.5C1524.633,229.5,1534.672,229.5,1539.691,229.5L1544.711,229.5" id="L_WP_GWA_0" class="edge-thickness-normal edge-pattern-dotted edge-thickness-normal edge-pattern-solid flowchart-link" style=";" data-edge="true" data-et="edge" data-id="L_WP_GWA_0" data-points="W3sieCI6MTQzOS41OTM3NSwieSI6MjI5LjV9LHsieCI6MTQ2NC41OTM3NSwieSI6MjI5LjV9LHsieCI6MTQ4OS41OTM3NSwieSI6MjI5LjV9LHsieCI6MTUxNC41OTM3NSwieSI6MjI5LjV9LHsieCI6MTU0OC43MTA5Mzc1LCJ5IjoyMjkuNX1d" marker-end="url(#my-svg_flowchart-v2-pointEnd)"/><path d="M1352.207,507L1336.139,455.708C1320.07,404.417,1287.934,301.833,1242.686,239.895C1197.438,177.957,1139.08,156.664,1109.901,146.018L1080.721,135.371" id="L_GP_Domain_0" class="edge-thickness-normal edge-pattern-solid edge-thickness-normal edge-pattern-solid flowchart-link" style=";" data-edge="true" data-et="edge" data-id="L_GP_Domain_0" data-points="W3sieCI6MTM1Mi4yMDY4MzQ5MTE4NTI5LCJ5Ijo1MDd9LHsieCI6MTI1NS43OTY4NzUsInkiOjE5OS4yNX0seyJ4IjoxMDc2Ljk2MzU0MTY2NjY2NjcsInkiOjEzNH1d" marker-end="url(#my-svg_flowchart-v2-pointEnd)"/><path d="M510.211,397.335L517.309,394.612C524.406,391.89,538.602,386.445,591.877,342.997C645.152,299.549,737.508,218.097,783.685,177.371L829.863,136.646" id="L_IP_Domain_0" class="edge-thickness-normal edge-pattern-solid edge-thickness-normal edge-pattern-solid flowchart-link" style=";" data-edge="true" data-et="edge" data-id="L_IP_Domain_0" data-points="W3sieCI6NTEwLjIxMDkzNzUsInkiOjM5Ny4zMzQ4NTAxNjY0ODE3fSx7IngiOjU1Mi43OTY4NzUsInkiOjM4MX0seyJ4Ijo4MzIuODYzMDA0MDMyMjU4LCJ5IjoxMzR9XQ==" marker-end="url(#my-svg_flowchart-v2-pointEnd)"/><path d="M485.267,295L496.522,287.458C507.777,279.917,530.287,264.833,578.883,238.302C627.48,211.771,702.163,173.792,739.505,154.803L776.846,135.813" id="L_SP_Domain_0" class="edge-thickness-normal edge-pattern-solid edge-thickness-normal edge-pattern-solid flowchart-link" style=";" data-edge="true" data-et="edge" data-id="L_SP_Domain_0" data-points="W3sieCI6NDg1LjI2NjY0NjQyMjI2MTUsInkiOjI5NX0seyJ4Ijo1NTIuNzk2ODc1LCJ5IjoyNDkuNzV9LHsieCI6NzgwLjQxMTU2MDMxNDY4NTMsInkiOjEzNH1d" marker-end="url(#my-svg_flowchart-v2-pointEnd)"/><path d="M521.141,601.894L526.417,600.37C531.693,598.846,542.245,595.798,598.658,518.369C655.071,440.939,757.345,289.128,808.482,213.223L859.619,137.317" id="L_RP_Domain_0" class="edge-thickness-normal edge-pattern-solid edge-thickness-normal edge-pattern-solid flowchart-link" style=";" data-edge="true" data-et="edge" data-id="L_RP_Domain_0" data-points="W3sieCI6NTIxLjE0MDYyNSwieSI6NjAxLjg5NDM1ODEyMDYwNjd9LHsieCI6NTUyLjc5Njg3NSwieSI6NTkyLjc1fSx7IngiOjg2MS44NTQxMzQyMjM3NjYyLCJ5IjoxMzR9XQ==" marker-end="url(#my-svg_flowchart-v2-pointEnd)"/><path d="M1010.251,134L1051.176,158.333C1092.1,182.667,1173.948,231.333,1230.26,292.884C1286.573,354.434,1317.348,428.869,1332.736,466.086L1348.124,503.303" id="L_Domain_GP_0" class="edge-thickness-normal edge-pattern-solid edge-thickness-normal edge-pattern-solid flowchart-link" style=";" data-edge="true" data-et="edge" data-id="L_Domain_GP_0" data-points="W3sieCI6MTAxMC4yNTE0MjA0NTQ1NDU1LCJ5IjoxMzR9LHsieCI6MTI1NS43OTY4NzUsInkiOjI4MH0seyJ4IjoxMzQ5LjY1MjEwMzk2MDM5NiwieSI6NTA3fV0=" marker-end="url(#my-svg_flowchart-v2-pointEnd)"/><path d="M1044.01,134L1079.308,149.917C1114.605,165.833,1185.201,197.667,1223.999,213.583C1262.797,229.5,1269.797,229.5,1273.297,229.5L1276.797,229.5" id="L_Domain_WP_0" class="edge-thickness-normal edge-pattern-solid edge-thickness-normal edge-pattern-solid flowchart-link" style=";" data-edge="true" data-et="edge" data-id="L_Domain_WP_0" data-points="W3sieCI6MTA0NC4wMDk4MDg3NTM5NDMyLCJ5IjoxMzR9LHsieCI6MTI1NS43OTY4NzUsInkiOjIyOS41fSx7IngiOjEyODAuNzk2ODc1LCJ5IjoyMjkuNX1d" marker-end="url(#my-svg_flowchart-v2-pointEnd)"/></g><g class="edgeLabels"><g class="edgeLabel"><g class="label" data-id="L_CLI_GP_0" transform="translate(0, 0)"><foreignObject width="0" height="0"><div xmlns="http://www.w3.org/1999/xhtml" class="labelBkg" style="display: table-cell; white-space: nowrap; line-height: 1.5; max-width: 200px; text-align: center;"><span class="edgeLabel"></span></div></foreignObject></g></g><g class="edgeLabel"><g class="label" data-id="L_CLI_IP_0" transform="translate(0, 0)"><foreignObject width="0" height="0"><div xmlns="http://www.w3.org/1999/xhtml" class="labelBkg" style="display: table-cell; white-space: nowrap; line-height: 1.5; max-width: 200px; text-align: center;"><span class="edgeLabel"></span></div></foreignObject></g></g><g class="edgeLabel"><g class="label" data-id="L_CLI_SP_0" transform="translate(0, 0)"><foreignObject width="0" height="0"><div xmlns="http://www.w3.org/1999/xhtml" class="labelBkg" style="display: table-cell; white-space: nowrap; line-height: 1.5; max-width: 200px; text-align: center;"><span class="edgeLabel"></span></div></foreignObject></g></g><g class="edgeLabel"><g class="label" data-id="L_TUI_RP_0" transform="translate(0, 0)"><foreignObject width="0" height="0"><div xmlns="http://www.w3.org/1999/xhtml" class="labelBkg" style="display: table-cell; white-space: nowrap; line-height: 1.5; max-width: 200px; text-align: center;"><span class="edgeLabel"></span></div></foreignObject></g></g><g class="edgeLabel"><g class="label" data-id="L_TUI_GP_0" transform="translate(0, 0)"><foreignObject width="0" height="0"><div xmlns="http://www.w3.org/1999/xhtml" class="labelBkg" style="display: table-cell; white-space: nowrap; line-height: 1.5; max-width: 200px; text-align: center;"><span class="edgeLabel"></span></div></foreignObject></g></g><g class="edgeLabel"><g class="label" data-id="L_DAEMON_GP_0" transform="translate(0, 0)"><foreignObject width="0" height="0"><div xmlns="http://www.w3.org/1999/xhtml" class="labelBkg" style="display: table-cell; white-space: nowrap; line-height: 1.5; max-width: 200px; text-align: center;"><span class="edgeLabel"></span></div></foreignObject></g></g><g class="edgeLabel"><g class="label" data-id="L_GP_WGA_0" transform="translate(0, 0)"><foreignObject width="0" height="0"><div xmlns="http://www.w3.org/1999/xhtml" class="labelBkg" style="display: table-cell; white-space: nowrap; line-height: 1.5; max-width: 200px; text-align: center;"><span class="edgeLabel"></span></div></foreignObject></g></g><g class="edgeLabel"><g class="label" data-id="L_IP_WIA_0" transform="translate(0, 0)"><foreignObject width="0" height="0"><div xmlns="http://www.w3.org/1999/xhtml" class="labelBkg" style="display: table-cell; white-space: nowrap; line-height: 1.5; max-width: 200px; text-align: center;"><span class="edgeLabel"></span></div></foreignObject></g></g><g class="edgeLabel"><g class="label" data-id="L_SP_WSA_0" transform="translate(0, 0)"><foreignObject width="0" height="0"><div xmlns="http://www.w3.org/1999/xhtml" class="labelBkg" style="display: table-cell; white-space: nowrap; line-height: 1.5; max-width: 200px; text-align: center;"><span class="edgeLabel"></span></div></foreignObject></g></g><g class="edgeLabel"><g class="label" data-id="L_RP_WRA_0" transform="translate(0, 0)"><foreignObject width="0" height="0"><div xmlns="http://www.w3.org/1999/xhtml" class="labelBkg" style="display: table-cell; white-space: nowrap; line-height: 1.5; max-width: 200px; text-align: center;"><span class="edgeLabel"></span></div></foreignObject></g></g><g class="edgeLabel"><g class="label" data-id="L_WP_GWA_0" transform="translate(0, 0)"><foreignObject width="0" height="0"><div xmlns="http://www.w3.org/1999/xhtml" class="labelBkg" style="display: table-cell; white-space: nowrap; line-height: 1.5; max-width: 200px; text-align: center;"><span class="edgeLabel"></span></div></foreignObject></g></g><g class="edgeLabel"><g class="label" data-id="L_GP_Domain_0" transform="translate(0, 0)"><foreignObject width="0" height="0"><div xmlns="http://www.w3.org/1999/xhtml" class="labelBkg" style="display: table-cell; white-space: nowrap; line-height: 1.5; max-width: 200px; text-align: center;"><span class="edgeLabel"></span></div></foreignObject></g></g><g class="edgeLabel"><g class="label" data-id="L_IP_Domain_0" transform="translate(0, 0)"><foreignObject width="0" height="0"><div xmlns="http://www.w3.org/1999/xhtml" class="labelBkg" style="display: table-cell; white-space: nowrap; line-height: 1.5; max-width: 200px; text-align: center;"><span class="edgeLabel"></span></div></foreignObject></g></g><g class="edgeLabel"><g class="label" data-id="L_SP_Domain_0" transform="translate(0, 0)"><foreignObject width="0" height="0"><div xmlns="http://www.w3.org/1999/xhtml" class="labelBkg" style="display: table-cell; white-space: nowrap; line-height: 1.5; max-width: 200px; text-align: center;"><span class="edgeLabel"></span></div></foreignObject></g></g><g class="edgeLabel"><g class="label" data-id="L_RP_Domain_0" transform="translate(0, 0)"><foreignObject width="0" height="0"><div xmlns="http://www.w3.org/1999/xhtml" class="labelBkg" style="display: table-cell; white-space: nowrap; line-height: 1.5; max-width: 200px; text-align: center;"><span class="edgeLabel"></span></div></foreignObject></g></g><g class="edgeLabel"><g class="label" data-id="L_Domain_GP_0" transform="translate(0, 0)"><foreignObject width="0" height="0"><div xmlns="http://www.w3.org/1999/xhtml" class="labelBkg" style="display: table-cell; white-space: nowrap; line-height: 1.5; max-width: 200px; text-align: center;"><span class="edgeLabel"></span></div></foreignObject></g></g><g class="edgeLabel"><g class="label" data-id="L_Domain_WP_0" transform="translate(0, 0)"><foreignObject width="0" height="0"><div xmlns="http://www.w3.org/1999/xhtml" class="labelBkg" style="display: table-cell; white-space: nowrap; line-height: 1.5; max-width: 200px; text-align: center;"><span class="edgeLabel"></span></div></foreignObject></g></g></g><g class="nodes"><g class="root" transform="translate(569.796875, 0)"><g class="clusters"><g class="cluster" id="Domain" data-look="classic"><rect style="" x="8" y="8" width="653" height="126"/><g class="cluster-label" transform="translate(292.65625, 8)"><foreignObject width="83.6875" height="21"><div xmlns="http://www.w3.org/1999/xhtml" style="display: table-cell; white-space: nowrap; line-height: 1.5; max-width: 200px; text-align: center;"><span class="nodeLabel"><p>Domain Core</p></span></div></foreignObject></g></g></g><g class="edgePaths"/><g class="edgeLabels"/><g class="nodes"><g class="node default" id="flowchart-ENT-8" transform="translate(122.5, 71)"><rect class="basic label-container" style="" x="-79.5" y="-25.5" width="159" height="51"/><g class="label" style="" transform="translate(-49.5, -10.5)"><rect/><foreignObject width="99" height="21"><div xmlns="http://www.w3.org/1999/xhtml" style="display: table-cell; white-space: nowrap; line-height: 1.5; max-width: 200px; text-align: center;"><span class="nodeLabel"><p>domain/entities</p></span></div></foreignObject></g></g><g class="node default" id="flowchart-SVC-9" transform="translate(334.6796875, 71)"><rect class="basic label-container" style="" x="-82.6796875" y="-25.5" width="165.359375" height="51"/><g class="label" style="" transform="translate(-52.6796875, -10.5)"><rect/><foreignObject width="105.359375" height="21"><div xmlns="http://www.w3.org/1999/xhtml" style="display: table-cell; white-space: nowrap; line-height: 1.5; max-width: 200px; text-align: center;"><span class="nodeLabel"><p>domain/services</p></span></div></foreignObject></g></g><g class="node default" id="flowchart-MOD-10" transform="translate(546.6796875, 71)"><rect class="basic label-container" style="" x="-79.3203125" y="-25.5" width="158.640625" height="51"/><g class="label" style="" transform="translate(-49.3203125, -10.5)"><rect/><foreignObject width="98.640625" height="21"><div xmlns="http://www.w3.org/1999/xhtml" style="display: table-cell; white-space: nowrap; line-height: 1.5; max-width: 200px; text-align: center;"><span class="nodeLabel"><p>domain/models</p></span></div></foreignObject></g></g></g></g><g class="node default" id="flowchart-CLI-0" transform="translate(149.8125, 421.5)"><rect class="basic label-container" style="" x="-93.546875" y="-25.5" width="187.09375" height="51"/><g class="label" style="" transform="translate(-63.546875, -10.5)"><rect/><foreignObject width="127.09375" height="21"><div xmlns="http://www.w3.org/1999/xhtml" style="display: table-cell; white-space: nowrap; line-height: 1.5; max-width: 200px; text-align: center;"><span class="nodeLabel"><p>xyph-actuator (CLI)</p></span></div></foreignObject></g></g><g class="node default" id="flowchart-TUI-1" transform="translate(149.8125, 593)"><rect class="basic label-container" style="" x="-116.8125" y="-25.5" width="233.625" height="51"/><g class="label" style="" transform="translate(-86.8125, -10.5)"><rect/><foreignObject width="173.625" height="21"><div xmlns="http://www.w3.org/1999/xhtml" style="display: table-cell; white-space: nowrap; line-height: 1.5; max-width: 200px; text-align: center;"><span class="nodeLabel"><p>xyph-dashboard (TUI/TEA)</p></span></div></foreignObject></g></g><g class="node default" id="flowchart-DAEMON-2" transform="translate(149.8125, 704)"><rect class="basic label-container" style="" x="-100.2421875" y="-25.5" width="200.484375" height="51"/><g class="label" style="" transform="translate(-70.2421875, -10.5)"><rect/><foreignObject width="140.484375" height="21"><div xmlns="http://www.w3.org/1999/xhtml" style="display: table-cell; white-space: nowrap; line-height: 1.5; max-width: 200px; text-align: center;"><span class="nodeLabel"><p>coordinator (daemon)</p></span></div></foreignObject></g></g><g class="node default" id="flowchart-GP-3" transform="translate(1360.1953125, 532.5)"><rect class="basic label-container" style="" x="-63.2265625" y="-25.5" width="126.453125" height="51"/><g class="label" style="" transform="translate(-33.2265625, -10.5)"><rect/><foreignObject width="66.453125" height="21"><div xmlns="http://www.w3.org/1999/xhtml" style="display: table-cell; white-space: nowrap; line-height: 1.5; max-width: 200px; text-align: center;"><span class="nodeLabel"><p>GraphPort</p></span></div></foreignObject></g></g><g class="node default" id="flowchart-IP-4" transform="translate(447.2109375, 421.5)"><rect class="basic label-container" style="" x="-63" y="-25.5" width="126" height="51"/><g class="label" style="" transform="translate(-33, -10.5)"><rect/><foreignObject width="66" height="21"><div xmlns="http://www.w3.org/1999/xhtml" style="display: table-cell; white-space: nowrap; line-height: 1.5; max-width: 200px; text-align: center;"><span class="nodeLabel"><p>IntakePort</p></span></div></foreignObject></g></g><g class="node default" id="flowchart-SP-5" transform="translate(447.2109375, 320.5)"><rect class="basic label-container" style="" x="-80.5859375" y="-25.5" width="161.171875" height="51"/><g class="label" style="" transform="translate(-50.5859375, -10.5)"><rect/><foreignObject width="101.171875" height="21"><div xmlns="http://www.w3.org/1999/xhtml" style="display: table-cell; white-space: nowrap; line-height: 1.5; max-width: 200px; text-align: center;"><span class="nodeLabel"><p>SubmissionPort</p></span></div></foreignObject></g></g><g class="node default" id="flowchart-RP-6" transform="translate(447.2109375, 623.25)"><rect class="basic label-container" style="" x="-73.9296875" y="-25.5" width="147.859375" height="51"/><g class="label" style="" transform="translate(-43.9296875, -10.5)"><rect/><foreignObject width="87.859375" height="21"><div xmlns="http://www.w3.org/1999/xhtml" style="display: table-cell; white-space: nowrap; line-height: 1.5; max-width: 200px; text-align: center;"><span class="nodeLabel"><p>RoadmapPort</p></span></div></foreignObject></g></g><g class="node default" id="flowchart-WP-7" transform="translate(1360.1953125, 229.5)"><rect class="basic label-container" style="" x="-79.3984375" y="-25.5" width="158.796875" height="51"/><g class="label" style="" transform="translate(-49.3984375, -10.5)"><rect/><foreignObject width="98.796875" height="21"><div xmlns="http://www.w3.org/1999/xhtml" style="display: table-cell; white-space: nowrap; line-height: 1.5; max-width: 200px; text-align: center;"><span class="nodeLabel"><p>WorkspacePort</p></span></div></foreignObject></g></g><g class="node default" id="flowchart-WGA-11" transform="translate(1649.296875, 532.5)"><rect class="basic label-container" style="" x="-92.3515625" y="-25.5" width="184.703125" height="51"/><g class="label" style="" transform="translate(-62.3515625, -10.5)"><rect/><foreignObject width="124.703125" height="21"><div xmlns="http://www.w3.org/1999/xhtml" style="display: table-cell; white-space: nowrap; line-height: 1.5; max-width: 200px; text-align: center;"><span class="nodeLabel"><p>WarpGraphAdapter</p></span></div></foreignObject></g></g><g class="node default" id="flowchart-WIA-12" transform="translate(1649.296875, 431.5)"><rect class="basic label-container" style="" x="-91.984375" y="-25.5" width="183.96875" height="51"/><g class="label" style="" transform="translate(-61.984375, -10.5)"><rect/><foreignObject width="123.96875" height="21"><div xmlns="http://www.w3.org/1999/xhtml" style="display: table-cell; white-space: nowrap; line-height: 1.5; max-width: 200px; text-align: center;"><span class="nodeLabel"><p>WarpIntakeAdapter</p></span></div></foreignObject></g></g><g class="node default" id="flowchart-WSA-13" transform="translate(1649.296875, 330.5)"><rect class="basic label-container" style="" x="-109.703125" y="-25.5" width="219.40625" height="51"/><g class="label" style="" transform="translate(-79.703125, -10.5)"><rect/><foreignObject width="159.40625" height="21"><div xmlns="http://www.w3.org/1999/xhtml" style="display: table-cell; white-space: nowrap; line-height: 1.5; max-width: 200px; text-align: center;"><span class="nodeLabel"><p>WarpSubmissionAdapter</p></span></div></foreignObject></g></g><g class="node default" id="flowchart-WRA-14" transform="translate(1649.296875, 633.5)"><rect class="basic label-container" style="" x="-102.84375" y="-25.5" width="205.6875" height="51"/><g class="label" style="" transform="translate(-72.84375, -10.5)"><rect/><foreignObject width="145.6875" height="21"><div xmlns="http://www.w3.org/1999/xhtml" style="display: table-cell; white-space: nowrap; line-height: 1.5; max-width: 200px; text-align: center;"><span class="nodeLabel"><p>WarpRoadmapAdapter</p></span></div></foreignObject></g></g><g class="node default" id="flowchart-GWA-15" transform="translate(1649.296875, 229.5)"><rect class="basic label-container" style="" x="-100.5859375" y="-25.5" width="201.171875" height="51"/><g class="label" style="" transform="translate(-70.5859375, -10.5)"><rect/><foreignObject width="141.171875" height="21"><div xmlns="http://www.w3.org/1999/xhtml" style="display: table-cell; white-space: nowrap; line-height: 1.5; max-width: 200px; text-align: center;"><span class="nodeLabel"><p>GitWorkspaceAdapter</p></span></div></foreignObject></g></g></g></g></g></svg>