<svg id="my-svg" width="100%" xmlns="http://www.w3.org/2000/svg" xmlns:xlink="http://www.w3.org/1999/xlink" class="statediagram" style="max-width: 1389.19px; background-color: transparent;" viewBox="0 0 1389.1875 392" role="graphics-document document" aria-roledescription="stateDiagram"><style>#my-svg{font-family:system-ui,-apple-system,sans-serif;font-size:14px;fill:#000000;}@keyframes edge-animation-frame{from{stroke-dashoffset:0;}}@keyframes dash{to{stroke-dashoffset:0;}}#my-svg .edge-animation-slow{stroke-dasharray:9,5!important;stroke-dashoffset:900;animation:dash 50s linear infinite;stroke-linecap:round;}#my-svg .edge-animation-fast{stroke-dasharray:9,5!important;stroke-dashoffset:900;animation:dash 20s linear infinite;stroke-linecap:round;}#my-svg .error-icon{fill:#552222;}#my-svg .error-text{fill:#552222;stroke:#552222;}#my-svg .edge-thickness-normal{stroke-width:1px;}#my-svg .edge-thickness-thick{stroke-width:3.5px;}#my-svg .edge-pattern-solid{stroke-dasharray:0;}#my-svg .edge-thickness-invisible{stroke-width:0;fill:none;}#my-svg .edge-pattern-dashed{stroke-dasharray:3;}#my-svg .edge-pattern-dotted{stroke-dasharray:2;}#my-svg .marker{fill:#666;stroke:#666;}#my-svg .marker.cross{stroke:#666;}#my-svg svg{font-family:system-ui,-apple-system,sans-serif;font-size:14px;}#my-svg p{margin:0;}#my-svg defs [id$="-barbEnd"]{fill:#000;stroke:#000;}#my-svg g.stateGroup text{fill:#999;stroke:none;font-size:10px;}#my-svg g.stateGroup text{fill:#000000;stroke:none;font-size:10px;}#my-svg g.stateGroup .state-title{font-weight:bolder;fill:#111111;}#my-svg g.stateGroup rect{fill:#eee;stroke:#999;}#my-svg g.stateGroup line{stroke:#666;stroke-width:1;}#my-svg .transition{stroke:#000;stroke-width:1;fill:none;}#my-svg .stateGroup .composit{fill:#ffffff;border-bottom:1px;}#my-svg .stateGroup .alt-composit{fill:#e0e0e0;border-bottom:1px;}#my-svg .state-note{stroke:#999;fill:#666;}#my-svg .state-note text{fill:#fff;stroke:none;font-size:10px;}#my-svg .stateLabel .box{stroke:none;stroke-width:0;fill:#eee;opacity:0.5;}#my-svg .edgeLabel .label rect{fill:#eee;opacity:0.5;}#my-svg .edgeLabel{background-color:white;text-align:center;}#my-svg .edgeLabel p{background-color:white;}#my-svg .edgeLabel rect{opacity:0.5;background-color:white;fill:white;}#my-svg .edgeLabel .label text{fill:#000000;}#my-svg .label div .edgeLabel{color:#000000;}#my-svg .stateLabel text{fill:#111111;font-size:10px;font-weight:bold;}#my-svg .node circle.state-start{fill:#222;stroke:#222;}#my-svg .node .fork-join{fill:#222;stroke:#222;}#my-svg .node circle.state-end{fill:hsl(0, 0%, 83.3333333333%);stroke:#ffffff;stroke-width:1.5;}#my-svg .end-state-inner{fill:#ffffff;stroke-width:1.5;}#my-svg .node rect{fill:#eee;stroke:#000;stroke-width:1px;}#my-svg .node polygon{fill:#eee;stroke:#000;stroke-width:1px;}#my-svg [id$="-barbEnd"]{fill:#666;}#my-svg .statediagram-cluster rect{fill:#eee;stroke:#000;stroke-width:1px;}#my-svg .cluster-label,#my-svg .nodeLabel{color:#111111;}#my-svg .statediagram-cluster rect.outer{rx:5px;ry:5px;}#my-svg .statediagram-state .divider{stroke:#000;}#my-svg .statediagram-state .title-state{rx:5px;ry:5px;}#my-svg .statediagram-cluster.statediagram-cluster .inner{fill:#ffffff;}#my-svg .statediagram-cluster.statediagram-cluster-alt .inner{fill:#f4f4f4;}#my-svg .statediagram-cluster .inner{rx:0;ry:0;}#my-svg .statediagram-state rect.basic{rx:5px;ry:5px;}#my-svg .statediagram-state rect.divider{stroke-dasharray:10,10;fill:#f4f4f4;}#my-svg .note-edge{stroke-dasharray:5;}#my-svg .statediagram-note rect{fill:#666;stroke:#999;stroke-width:1px;rx:0;ry:0;}#my-svg .statediagram-note rect{fill:#666;stroke:#999;stroke-width:1px;rx:0;ry:0;}#my-svg .statediagram-note text{fill:#fff;}#my-svg .statediagram-note .nodeLabel{color:#fff;}#my-svg .statediagram .edgeLabel{color:red;}#my-svg [id$="-dependencyStart"],#my-svg [id$="-dependencyEnd"]{fill:#666;stroke:#666;stroke-width:1;}#my-svg .statediagramTitleText{text-anchor:middle;font-size:18px;fill:#000000;}#my-svg [data-look="neo"].statediagram-cluster rect{fill:#eee;stroke:url(#my-svg-gradient);stroke-width:1;}#my-svg [data-look="neo"].statediagram-cluster rect.outer{rx:5px;ry:5px;filter:drop-shadow( 1px 2px 2px rgba(185,185,185,1));}#my-svg .node .neo-node{stroke:#999;}#my-svg [data-look="neo"].node rect,#my-svg [data-look="neo"].cluster rect,#my-svg [data-look="neo"].node polygon{stroke:url(#my-svg-gradient);filter:drop-shadow( 1px 2px 2px rgba(185,185,185,1));}#my-svg [data-look="neo"].node path{stroke:url(#my-svg-gradient);stroke-width:1px;}#my-svg [data-look="neo"].node .outer-path{filter:drop-shadow( 1px 2px 2px rgba(185,185,185,1));}#my-svg [data-look="neo"].node .neo-line path{stroke:#999;filter:none;}#my-svg [data-look="neo"].node circle{stroke:url(#my-svg-gradient);filter:drop-shadow( 1px 2px 2px rgba(185,185,185,1));}#my-svg [data-look="neo"].node circle .state-start{fill:#000000;}#my-svg [data-look="neo"].icon-shape .icon{fill:url(#my-svg-gradient);filter:drop-shadow( 1px 2px 2px rgba(185,185,185,1));}#my-svg [data-look="neo"].icon-shape .icon-neo path{stroke:url(#my-svg-gradient);filter:drop-shadow( 1px 2px 2px rgba(185,185,185,1));}#my-svg :root{--mermaid-font-family:"trebuchet ms",verdana,arial,sans-serif;}</style><g><defs><marker id="my-svg_stateDiagram-barbEnd" refX="19" refY="7" markerWidth="20" markerHeight="14" markerUnits="userSpaceOnUse" orient="auto"><path d="M 19,7 L9,13 L14,7 L9,1 Z"/></marker></defs><g class="root"><g class="clusters"/><g class="edgePaths"><path d="M22,277.25L26.167,277.25C30.333,277.25,38.667,277.25,47,277.25C55.333,277.25,63.667,277.25,67.833,277.25L72,277.25" id="my-svg-edge0" class="edge-thickness-normal edge-pattern-solid transition" style="fill:none;;;fill:none" data-edge="true" data-et="edge" data-id="edge0" data-points="W3sieCI6MjIsInkiOjI3Ny4yNX0seyJ4Ijo0NywieSI6Mjc3LjI1fSx7IngiOjcyLCJ5IjoyNzcuMjV9XQ==" data-look="classic" marker-end="url(#my-svg_stateDiagram-barbEnd)"/><path d="M137.828,262.047L141.995,260.123C146.161,258.198,154.495,254.349,162.828,252.425C171.161,250.5,179.495,250.5,183.661,250.5L187.828,250.5" id="my-svg-edge1" class="edge-thickness-normal edge-pattern-solid transition" style="fill:none;;;fill:none" data-edge="true" data-et="edge" data-id="edge1" data-points="W3sieCI6MTM3LjgyODEyNSwieSI6MjYyLjA0NzI4MTgwMjIzOTN9LHsieCI6MTYyLjgyODEyNSwieSI6MjUwLjV9LHsieCI6MTg3LjgyODEyNSwieSI6MjUwLjV9XQ==" data-look="classic" marker-end="url(#my-svg_stateDiagram-barbEnd)"/><path d="M283.781,232.914L287.948,231.387C292.115,229.859,300.448,226.805,308.781,225.277C317.115,223.75,325.448,223.75,329.615,223.75L333.781,223.75" id="my-svg-edge2" class="edge-thickness-normal edge-pattern-solid transition" style="fill:none;;;fill:none" data-edge="true" data-et="edge" data-id="edge2" data-points="W3sieCI6MjgzLjc4MTI1LCJ5IjoyMzIuOTEzOTAxMDgxMjU0N30seyJ4IjozMDguNzgxMjUsInkiOjIyMy43NX0seyJ4IjozMzMuNzgxMjUsInkiOjIyMy43NX1d" data-look="classic" marker-end="url(#my-svg_stateDiagram-barbEnd)"/><path d="M414.766,207.211L418.932,205.509C423.099,203.807,431.432,200.404,439.766,198.702C448.099,197,456.432,197,460.599,197L464.766,197" id="my-svg-edge3" class="edge-thickness-normal edge-pattern-solid transition" style="fill:none;;;fill:none" data-edge="true" data-et="edge" data-id="edge3" data-points="W3sieCI6NDE0Ljc2NTYyNSwieSI6MjA3LjIxMTE0MTU5NjA4NzMyfSx7IngiOjQzOS43NjU2MjUsInkiOjE5N30seyJ4Ijo0NjQuNzY1NjI1LCJ5IjoxOTd9XQ==" data-look="classic" marker-end="url(#my-svg_stateDiagram-barbEnd)"/><path d="M544.422,180.566L548.589,178.846C552.755,177.127,561.089,173.689,569.422,171.969C577.755,170.25,586.089,170.25,590.255,170.25L594.422,170.25" id="my-svg-edge4" class="edge-thickness-normal edge-pattern-solid transition" style="fill:none;;;fill:none" data-edge="true" data-et="edge" data-id="edge4" data-points="W3sieCI6NTQ0LjQyMTg3NSwieSI6MTgwLjU2NTczODczMjIyNDY0fSx7IngiOjU2OS40MjE4NzUsInkiOjE3MC4yNX0seyJ4Ijo1OTQuNDIxODc1LCJ5IjoxNzAuMjV9XQ==" data-look="classic" marker-end="url(#my-svg_stateDiagram-barbEnd)"/><path d="M658.188,155.257L662.354,153.297C666.521,151.338,674.854,147.419,683.188,145.459C691.521,143.5,699.854,143.5,704.021,143.5L708.188,143.5" id="my-svg-edge5" class="edge-thickness-normal edge-pattern-solid transition" style="fill:none;;;fill:none" data-edge="true" data-et="edge" data-id="edge5" data-points="W3sieCI6NjU4LjE4NzUsInkiOjE1NS4yNTY2MjY4MzY5NzI5NH0seyJ4Ijo2ODMuMTg3NSwieSI6MTQzLjV9LHsieCI6NzA4LjE4NzUsInkiOjE0My41fV0=" data-look="classic" marker-end="url(#my-svg_stateDiagram-barbEnd)"/><path d="M805.094,125.854L809.26,124.337C813.427,122.82,821.76,119.785,830.094,118.267C838.427,116.75,846.76,116.75,850.927,116.75L855.094,116.75" id="my-svg-edge6" class="edge-thickness-normal edge-pattern-solid transition" style="fill:none;;;fill:none" data-edge="true" data-et="edge" data-id="edge6" data-points="W3sieCI6ODA1LjA5Mzc1LCJ5IjoxMjUuODU0NDQ1ODYyNTgyNDJ9LHsieCI6ODMwLjA5Mzc1LCJ5IjoxMTYuNzV9LHsieCI6ODU1LjA5Mzc1LCJ5IjoxMTYuNzV9XQ==" data-look="classic" marker-end="url(#my-svg_stateDiagram-barbEnd)"/><path d="M944.359,99.604L948.526,98.003C952.693,96.403,961.026,93.201,969.359,91.601C977.693,90,986.026,90,990.193,90L994.359,90" id="my-svg-edge7" class="edge-thickness-normal edge-pattern-solid transition" style="fill:none;;;fill:none" data-edge="true" data-et="edge" data-id="edge7" data-points="W3sieCI6OTQ0LjM1OTM3NSwieSI6OTkuNjAzOTQ5Mjg3NTU3NX0seyJ4Ijo5NjkuMzU5Mzc1LCJ5Ijo5MH0seyJ4Ijo5OTQuMzU5Mzc1LCJ5Ijo5MH1d" data-look="classic" marker-end="url(#my-svg_stateDiagram-barbEnd)"/><path d="M1062.016,74.618L1066.182,72.723C1070.349,70.829,1078.682,67.039,1087.016,65.145C1095.349,63.25,1103.682,63.25,1107.849,63.25L1112.016,63.25" id="my-svg-edge8" class="edge-thickness-normal edge-pattern-solid transition" style="fill:none;;;fill:none" data-edge="true" data-et="edge" data-id="edge8" data-points="W3sieCI6MTA2Mi4wMTU2MjUsInkiOjc0LjYxNzg2MTg4NTc5MDE4fSx7IngiOjEwODcuMDE1NjI1LCJ5Ijo2My4yNX0seyJ4IjoxMTEyLjAxNTYyNSwieSI6NjMuMjV9XQ==" data-look="classic" marker-end="url(#my-svg_stateDiagram-barbEnd)"/><path d="M1160.609,50.066L1164.776,47.805C1168.943,45.544,1177.276,41.022,1185.609,38.761C1193.943,36.5,1202.276,36.5,1206.443,36.5L1210.609,36.5" id="my-svg-edge9" class="edge-thickness-normal edge-pattern-solid transition" style="fill:none;;;fill:none" data-edge="true" data-et="edge" data-id="edge9" data-points="W3sieCI6MTE2MC42MDkzNzUsInkiOjUwLjA2NTc2ODYyMTIzNjEzfSx7IngiOjExODUuNjA5Mzc1LCJ5IjozNi41fSx7IngiOjEyMTAuNjA5Mzc1LCJ5IjozNi41fV0=" data-look="classic" marker-end="url(#my-svg_stateDiagram-barbEnd)"/><path d="M1268.906,31.117L1273.073,30.347C1277.24,29.578,1285.573,28.039,1294.504,27.269C1303.435,26.5,1312.964,26.5,1317.728,26.5L1322.492,26.5" id="my-svg-edge10" class="edge-thickness-normal edge-pattern-solid transition" style="fill:none;;;fill:none" data-edge="true" data-et="edge" data-id="edge10" data-points="W3sieCI6MTI2OC45MDYyNSwieSI6MzEuMTE2OTM4MzkyNzI4MzIyfSx7IngiOjEyOTMuOTA2MjUsInkiOjI2LjV9LHsieCI6MTMyMi40OTIxODc1LCJ5IjoyNi41fV0=" data-look="classic" marker-end="url(#my-svg_stateDiagram-barbEnd)"/><path d="M114.951,295.75L122.93,310.458C130.91,325.167,146.869,354.583,167.011,369.292C187.154,384,211.479,384,235.805,384C260.13,384,284.456,384,307.534,384C330.612,384,352.443,384,374.273,384C396.104,384,417.935,384,439.655,384C461.375,384,482.984,384,504.594,384C526.203,384,547.813,384,568.098,384C588.383,384,607.344,384,626.305,384C645.266,384,664.227,384,685.949,384C707.672,384,732.156,384,756.641,384C781.125,384,805.609,384,829.457,384C853.305,384,876.516,384,899.727,384C922.938,384,946.148,384,967.559,384C988.969,384,1008.578,384,1028.188,384C1047.797,384,1067.406,384,1085.427,384C1103.448,384,1119.88,384,1136.313,384C1152.745,384,1169.177,384,1186.418,384C1203.659,384,1221.708,384,1239.758,384C1257.807,384,1275.857,384,1292.71,368.208C1309.563,352.417,1325.219,320.833,1333.048,305.042L1340.876,289.25" id="my-svg-edge11" class="edge-thickness-normal edge-pattern-solid transition" style="fill:none;;;fill:none" data-edge="true" data-et="edge" data-id="edge11" data-points="W3sieCI6MTE0Ljk1MDY5MTU5ODM2MDY2LCJ5IjoyOTUuNzV9LHsieCI6MTYyLjgyODEyNSwieSI6Mzg0fSx7IngiOjIzNS44MDQ2ODc1LCJ5IjozODR9LHsieCI6MzA4Ljc4MTI1LCJ5IjozODR9LHsieCI6Mzc0LjI3MzQzNzUsInkiOjM4NH0seyJ4Ijo0MzkuNzY1NjI1LCJ5IjozODR9LHsieCI6NTA0LjU5Mzc1LCJ5IjozODR9LHsieCI6NTY5LjQyMTg3NSwieSI6Mzg0fSx7IngiOjYyNi4zMDQ2ODc1LCJ5IjozODR9LHsieCI6NjgzLjE4NzUsInkiOjM4NH0seyJ4Ijo3NTYuNjQwNjI1LCJ5IjozODR9LHsieCI6ODMwLjA5Mzc1LCJ5IjozODR9LHsieCI6ODk5LjcyNjU2MjUsInkiOjM4NH0seyJ4Ijo5NjkuMzU5Mzc1LCJ5IjozODR9LHsieCI6MTAyOC4xODc1LCJ5IjozODR9LHsieCI6MTA4Ny4wMTU2MjUsInkiOjM4NH0seyJ4IjoxMTM2LjMxMjUsInkiOjM4NH0seyJ4IjoxMTg1LjYwOTM3NSwieSI6Mzg0fSx7IngiOjEyMzkuNzU3ODEyNSwieSI6Mzg0fSx7IngiOjEyOTMuOTA2MjUsInkiOjM4NH0seyJ4IjoxMzQwLjg3NjAwMDI3NTkzODIsInkiOjI4OS4yNX1d" data-look="classic" marker-end="url(#my-svg_stateDiagram-barbEnd)"/><path d="M249.759,269L259.596,282.042C269.433,295.083,289.107,321.167,309.86,334.208C330.612,347.25,352.443,347.25,374.273,347.25C396.104,347.25,417.935,347.25,439.655,347.25C461.375,347.25,482.984,347.25,504.594,347.25C526.203,347.25,547.813,347.25,568.098,347.25C588.383,347.25,607.344,347.25,626.305,347.25C645.266,347.25,664.227,347.25,685.949,347.25C707.672,347.25,732.156,347.25,756.641,347.25C781.125,347.25,805.609,347.25,829.457,347.25C853.305,347.25,876.516,347.25,899.727,347.25C922.938,347.25,946.148,347.25,967.559,347.25C988.969,347.25,1008.578,347.25,1028.188,347.25C1047.797,347.25,1067.406,347.25,1085.427,347.25C1103.448,347.25,1119.88,347.25,1136.313,347.25C1152.745,347.25,1169.177,347.25,1186.418,347.25C1203.659,347.25,1221.708,347.25,1239.758,347.25C1257.807,347.25,1275.857,347.25,1291.976,337.583C1308.094,327.917,1322.282,308.583,1329.376,298.917L1336.47,289.25" id="my-svg-edge12" class="edge-thickness-normal edge-pattern-solid transition" style="fill:none;;;fill:none" data-edge="true" data-et="edge" data-id="edge12" data-points="W3sieCI6MjQ5Ljc1ODg2MjI0MTYwMjA2LCJ5IjoyNjl9LHsieCI6MzA4Ljc4MTI1LCJ5IjozNDcuMjV9LHsieCI6Mzc0LjI3MzQzNzUsInkiOjM0Ny4yNX0seyJ4Ijo0MzkuNzY1NjI1LCJ5IjozNDcuMjV9LHsieCI6NTA0LjU5Mzc1LCJ5IjozNDcuMjV9LHsieCI6NTY5LjQyMTg3NSwieSI6MzQ3LjI1fSx7IngiOjYyNi4zMDQ2ODc1LCJ5IjozNDcuMjV9LHsieCI6NjgzLjE4NzUsInkiOjM0Ny4yNX0seyJ4Ijo3NTYuNjQwNjI1LCJ5IjozNDcuMjV9LHsieCI6ODMwLjA5Mzc1LCJ5IjozNDcuMjV9LHsieCI6ODk5LjcyNjU2MjUsInkiOjM0Ny4yNX0seyJ4Ijo5NjkuMzU5Mzc1LCJ5IjozNDcuMjV9LHsieCI6MTAyOC4xODc1LCJ5IjozNDcuMjV9LHsieCI6MTA4Ny4wMTU2MjUsInkiOjM0Ny4yNX0seyJ4IjoxMTM2LjMxMjUsInkiOjM0Ny4yNX0seyJ4IjoxMTg1LjYwOTM3NSwieSI6MzQ3LjI1fSx7IngiOjEyMzkuNzU3ODEyNSwieSI6MzQ3LjI1fSx7IngiOjEyOTMuOTA2MjUsInkiOjM0Ny4yNX0seyJ4IjoxMzM2LjQ3MDM4Mzk4NjkyOCwieSI6Mjg5LjI1fV0=" data-look="classic" marker-end="url(#my-svg_stateDiagram-barbEnd)"/><path d="M388.24,242.25L396.828,253.625C405.415,265,422.59,287.75,441.983,299.125C461.375,310.5,482.984,310.5,504.594,310.5C526.203,310.5,547.813,310.5,568.098,310.5C588.383,310.5,607.344,310.5,626.305,310.5C645.266,310.5,664.227,310.5,685.949,310.5C707.672,310.5,732.156,310.5,756.641,310.5C781.125,310.5,805.609,310.5,829.457,310.5C853.305,310.5,876.516,310.5,899.727,310.5C922.938,310.5,946.148,310.5,967.559,310.5C988.969,310.5,1008.578,310.5,1028.188,310.5C1047.797,310.5,1067.406,310.5,1085.427,310.5C1103.448,310.5,1119.88,310.5,1136.313,310.5C1152.745,310.5,1169.177,310.5,1186.418,310.5C1203.659,310.5,1221.708,310.5,1239.758,310.5C1257.807,310.5,1275.857,310.5,1289.884,306.958C1303.91,303.417,1313.914,296.333,1318.916,292.792L1323.919,289.25" id="my-svg-edge13" class="edge-thickness-normal edge-pattern-solid transition" style="fill:none;;;fill:none" data-edge="true" data-et="edge" data-id="edge13" data-points="W3sieCI6Mzg4LjI0MDA3MTE0NTUzMzE0LCJ5IjoyNDIuMjV9LHsieCI6NDM5Ljc2NTYyNSwieSI6MzEwLjV9LHsieCI6NTA0LjU5Mzc1LCJ5IjozMTAuNX0seyJ4Ijo1NjkuNDIxODc1LCJ5IjozMTAuNX0seyJ4Ijo2MjYuMzA0Njg3NSwieSI6MzEwLjV9LHsieCI6NjgzLjE4NzUsInkiOjMxMC41fSx7IngiOjc1Ni42NDA2MjUsInkiOjMxMC41fSx7IngiOjgzMC4wOTM3NSwieSI6MzEwLjV9LHsieCI6ODk5LjcyNjU2MjUsInkiOjMxMC41fSx7IngiOjk2OS4zNTkzNzUsInkiOjMxMC41fSx7IngiOjEwMjguMTg3NSwieSI6MzEwLjV9LHsieCI6MTA4Ny4wMTU2MjUsInkiOjMxMC41fSx7IngiOjExMzYuMzEyNSwieSI6MzEwLjV9LHsieCI6MTE4NS42MDkzNzUsInkiOjMxMC41fSx7IngiOjEyMzkuNzU3ODEyNSwieSI6MzEwLjV9LHsieCI6MTI5My45MDYyNSwieSI6MzEwLjV9LHsieCI6MTMyMy45MTg1MzM4MDUwMzE1LCJ5IjoyODkuMjV9XQ==" data-look="classic" marker-end="url(#my-svg_stateDiagram-barbEnd)"/><path d="M520.22,215.5L528.42,225.208C536.621,234.917,553.021,254.333,570.702,264.042C588.383,273.75,607.344,273.75,626.305,273.75C645.266,273.75,664.227,273.75,685.949,273.75C707.672,273.75,732.156,273.75,756.641,273.75C781.125,273.75,805.609,273.75,829.457,273.75C853.305,273.75,876.516,273.75,899.727,273.75C922.938,273.75,946.148,273.75,967.559,273.75C988.969,273.75,1008.578,273.75,1028.188,273.75C1047.797,273.75,1067.406,273.75,1085.427,273.75C1103.448,273.75,1119.88,273.75,1136.313,273.75C1152.745,273.75,1169.177,273.75,1186.418,273.75C1203.659,273.75,1221.708,273.75,1239.758,273.75C1257.807,273.75,1275.857,273.75,1289.048,273.527C1302.24,273.305,1310.573,272.859,1314.74,272.637L1318.906,272.414" id="my-svg-edge14" class="edge-thickness-normal edge-pattern-solid transition" style="fill:none;;;fill:none" data-edge="true" data-et="edge" data-id="edge14" data-points="W3sieCI6NTIwLjIyMDA3MzI4OTkwMjMsInkiOjIxNS41fSx7IngiOjU2OS40MjE4NzUsInkiOjI3My43NX0seyJ4Ijo2MjYuMzA0Njg3NSwieSI6MjczLjc1fSx7IngiOjY4My4xODc1LCJ5IjoyNzMuNzV9LHsieCI6NzU2LjY0MDYyNSwieSI6MjczLjc1fSx7IngiOjgzMC4wOTM3NSwieSI6MjczLjc1fSx7IngiOjg5OS43MjY1NjI1LCJ5IjoyNzMuNzV9LHsieCI6OTY5LjM1OTM3NSwieSI6MjczLjc1fSx7IngiOjEwMjguMTg3NSwieSI6MjczLjc1fSx7IngiOjEwODcuMDE1NjI1LCJ5IjoyNzMuNzV9LHsieCI6MTEzNi4zMTI1LCJ5IjoyNzMuNzV9LHsieCI6MTE4NS42MDkzNzUsInkiOjI3My43NX0seyJ4IjoxMjM5Ljc1NzgxMjUsInkiOjI3My43NX0seyJ4IjoxMjkzLjkwNjI1LCJ5IjoyNzMuNzV9LHsieCI6MTMxOC45MDYyNSwieSI6MjcyLjQxNDA2OTAyMzEwMDQ3fV0=" data-look="classic" marker-end="url(#my-svg_stateDiagram-barbEnd)"/><path d="M642.07,188.75L648.923,196.792C655.776,204.833,669.482,220.917,688.577,228.958C707.672,237,732.156,237,756.641,237C781.125,237,805.609,237,829.457,237C853.305,237,876.516,237,899.727,237C922.938,237,946.148,237,967.559,237C988.969,237,1008.578,237,1028.188,237C1047.797,237,1067.406,237,1085.427,237C1103.448,237,1119.88,237,1136.313,237C1152.745,237,1169.177,237,1186.418,237C1203.659,237,1221.708,237,1239.758,237C1257.807,237,1275.857,237,1289.109,239.542C1302.362,242.083,1310.818,247.167,1315.046,249.708L1319.273,252.25" id="my-svg-edge15" class="edge-thickness-normal edge-pattern-solid transition" style="fill:none;;;fill:none" data-edge="true" data-et="edge" data-id="edge15" data-points="W3sieCI6NjQyLjA2OTk2MTM3NjQwNDUsInkiOjE4OC43NX0seyJ4Ijo2ODMuMTg3NSwieSI6MjM3fSx7IngiOjc1Ni42NDA2MjUsInkiOjIzN30seyJ4Ijo4MzAuMDkzNzUsInkiOjIzN30seyJ4Ijo4OTkuNzI2NTYyNSwieSI6MjM3fSx7IngiOjk2OS4zNTkzNzUsInkiOjIzN30seyJ4IjoxMDI4LjE4NzUsInkiOjIzN30seyJ4IjoxMDg3LjAxNTYyNSwieSI6MjM3fSx7IngiOjExMzYuMzEyNSwieSI6MjM3fSx7IngiOjExODUuNjA5Mzc1LCJ5IjoyMzd9LHsieCI6MTIzOS43NTc4MTI1LCJ5IjoyMzd9LHsieCI6MTI5My45MDYyNSwieSI6MjM3fSx7IngiOjEzMTkuMjczNDk1MzcwMzcwMywieSI6MjUyLjI1fV0=" data-look="classic" marker-end="url(#my-svg_stateDiagram-barbEnd)"/><path d="M780.586,162L788.837,168.375C797.088,174.75,813.591,187.5,833.448,193.875C853.305,200.25,876.516,200.25,899.727,200.25C922.938,200.25,946.148,200.25,967.559,200.25C988.969,200.25,1008.578,200.25,1028.188,200.25C1047.797,200.25,1067.406,200.25,1085.427,200.25C1103.448,200.25,1119.88,200.25,1136.313,200.25C1152.745,200.25,1169.177,200.25,1186.418,200.25C1203.659,200.25,1221.708,200.25,1239.758,200.25C1257.807,200.25,1275.857,200.25,1291.783,208.917C1307.709,217.583,1321.512,234.917,1328.413,243.583L1335.315,252.25" id="my-svg-edge16" class="edge-thickness-normal edge-pattern-solid transition" style="fill:none;;;fill:none" data-edge="true" data-et="edge" data-id="edge16" data-points="W3sieCI6NzgwLjU4NTY5NjU4NTkwMzEsInkiOjE2Mn0seyJ4Ijo4MzAuMDkzNzUsInkiOjIwMC4yNX0seyJ4Ijo4OTkuNzI2NTYyNSwieSI6MjAwLjI1fSx7IngiOjk2OS4zNTkzNzUsInkiOjIwMC4yNX0seyJ4IjoxMDI4LjE4NzUsInkiOjIwMC4yNX0seyJ4IjoxMDg3LjAxNTYyNSwieSI6MjAwLjI1fSx7IngiOjExMzYuMzEyNSwieSI6MjAwLjI1fSx7IngiOjExODUuNjA5Mzc1LCJ5IjoyMDAuMjV9LHsieCI6MTIzOS43NTc4MTI1LCJ5IjoyMDAuMjV9LHsieCI6MTI5My45MDYyNSwieSI6MjAwLjI1fSx7IngiOjEzMzUuMzE0OTM3OTQzMjYyNSwieSI6MjUyLjI1fV0=" data-look="classic" marker-end="url(#my-svg_stateDiagram-barbEnd)"/><path d="M927.282,135.25L934.295,139.958C941.308,144.667,955.334,154.083,972.151,158.792C988.969,163.5,1008.578,163.5,1028.188,163.5C1047.797,163.5,1067.406,163.5,1085.427,163.5C1103.448,163.5,1119.88,163.5,1136.313,163.5C1152.745,163.5,1169.177,163.5,1186.418,163.5C1203.659,163.5,1221.708,163.5,1239.758,163.5C1257.807,163.5,1275.857,163.5,1292.624,178.292C1309.392,193.083,1324.877,222.667,1332.62,237.458L1340.363,252.25" id="my-svg-edge17" class="edge-thickness-normal edge-pattern-solid transition" style="fill:none;;;fill:none" data-edge="true" data-et="edge" data-id="edge17" data-points="W3sieCI6OTI3LjI4MTc5MzExNDk3MzMsInkiOjEzNS4yNX0seyJ4Ijo5NjkuMzU5Mzc1LCJ5IjoxNjMuNX0seyJ4IjoxMDI4LjE4NzUsInkiOjE2My41fSx7IngiOjEwODcuMDE1NjI1LCJ5IjoxNjMuNX0seyJ4IjoxMTM2LjMxMjUsInkiOjE2My41fSx7IngiOjExODUuNjA5Mzc1LCJ5IjoxNjMuNX0seyJ4IjoxMjM5Ljc1NzgxMjUsInkiOjE2My41fSx7IngiOjEyOTMuOTA2MjUsInkiOjE2My41fSx7IngiOjEzNDAuMzYyOTQ0MzQ3MzE5NCwieSI6MjUyLjI1fV0=" data-look="classic" marker-end="url(#my-svg_stateDiagram-barbEnd)"/><path d="M1057.802,108.5L1062.671,111.542C1067.54,114.583,1077.278,120.667,1090.363,123.708C1103.448,126.75,1119.88,126.75,1136.313,126.75C1152.745,126.75,1169.177,126.75,1186.418,126.75C1203.659,126.75,1221.708,126.75,1239.758,126.75C1257.807,126.75,1275.857,126.75,1293.036,147.667C1310.216,168.583,1326.525,210.417,1334.68,231.333L1342.834,252.25" id="my-svg-edge18" class="edge-thickness-normal edge-pattern-solid transition" style="fill:none;;;fill:none" data-edge="true" data-et="edge" data-id="edge18" data-points="W3sieCI6MTA1Ny44MDE2NTgxNjMyNjUzLCJ5IjoxMDguNX0seyJ4IjoxMDg3LjAxNTYyNSwieSI6MTI2Ljc1fSx7IngiOjExMzYuMzEyNSwieSI6MTI2Ljc1fSx7IngiOjExODUuNjA5Mzc1LCJ5IjoxMjYuNzV9LHsieCI6MTIzOS43NTc4MTI1LCJ5IjoxMjYuNzV9LHsieCI6MTI5My45MDYyNSwieSI6MTI2Ljc1fSx7IngiOjEzNDIuODM0MzY0MTQ5MzA1NywieSI6MjUyLjI1fV0=" data-look="classic" marker-end="url(#my-svg_stateDiagram-barbEnd)"/><path d="M1160.609,76.434L1164.776,78.695C1168.943,80.956,1177.276,85.478,1190.467,87.739C1203.659,90,1221.708,90,1239.758,90C1257.807,90,1275.857,90,1293.281,117.042C1310.704,144.083,1327.503,198.167,1335.902,225.208L1344.301,252.25" id="my-svg-edge19" class="edge-thickness-normal edge-pattern-solid transition" style="fill:none;;;fill:none" data-edge="true" data-et="edge" data-id="edge19" data-points="W3sieCI6MTE2MC42MDkzNzUsInkiOjc2LjQzNDIzMTM3ODc2Mzg3fSx7IngiOjExODUuNjA5Mzc1LCJ5Ijo5MH0seyJ4IjoxMjM5Ljc1NzgxMjUsInkiOjkwfSx7IngiOjEyOTMuOTA2MjUsInkiOjkwfSx7IngiOjEzNDQuMzAwODA4MjY0MTc3LCJ5IjoyNTIuMjV9XQ==" data-look="classic" marker-end="url(#my-svg_stateDiagram-barbEnd)"/><path d="M1268.906,45.517L1273.073,46.806C1277.24,48.094,1285.573,50.672,1298.3,85.128C1311.028,119.583,1328.15,185.917,1336.711,219.083L1345.272,252.25" id="my-svg-edge20" class="edge-thickness-normal edge-pattern-solid transition" style="fill:none;;;fill:none" data-edge="true" data-et="edge" data-id="edge20" data-points="W3sieCI6MTI2OC45MDYyNSwieSI6NDUuNTE2NjI4MTkyMTgwMDY1fSx7IngiOjEyOTMuOTA2MjUsInkiOjUzLjI1fSx7IngiOjEzNDUuMjcxNjk1NDAyMjk4NywieSI6MjUyLjI1fV0=" data-look="classic" marker-end="url(#my-svg_stateDiagram-barbEnd)"/></g><g class="edgeLabels"><g class="edgeLabel"><g class="label" data-id="edge0" transform="translate(0, 0)"><foreignObject width="0" height="0"><div xmlns="http://www.w3.org/1999/xhtml" class="labelBkg" style="display: table-cell; white-space: nowrap; line-height: 1.5; max-width: 200px; text-align: center;"><span class="edgeLabel"></span></div></foreignObject></g></g><g class="edgeLabel"><g class="label" data-id="edge1" transform="translate(0, 0)"><foreignObject width="0" height="0"><div xmlns="http://www.w3.org/1999/xhtml" class="labelBkg" style="display: table-cell; white-space: nowrap; line-height: 1.5; max-width: 200px; text-align: center;"><span class="edgeLabel"></span></div></foreignObject></g></g><g class="edgeLabel"><g class="label" data-id="edge2" transform="translate(0, 0)"><foreignObject width="0" height="0"><div xmlns="http://www.w3.org/1999/xhtml" class="labelBkg" style="display: table-cell; white-space: nowrap; line-height: 1.5; max-width: 200px; text-align: center;"><span class="edgeLabel"></span></div></foreignObject></g></g><g class="edgeLabel"><g class="label" data-id="edge3" transform="translate(0, 0)"><foreignObject width="0" height="0"><div xmlns="http://www.w3.org/1999/xhtml" class="labelBkg" style="display: table-cell; white-space: nowrap; line-height: 1.5; max-width: 200px; text-align: center;"><span class="edgeLabel"></span></div></foreignObject></g></g><g class="edgeLabel"><g class="label" data-id="edge4" transform="translate(0, 0)"><foreignObject width="0" height="0"><div xmlns="http://www.w3.org/1999/xhtml" class="labelBkg" style="display: table-cell; white-space: nowrap; line-height: 1.5; max-width: 200px; text-align: center;"><span class="edgeLabel"></span></div></foreignObject></g></g><g class="edgeLabel"><g class="label" data-id="edge5" transform="translate(0, 0)"><foreignObject width="0" height="0"><div xmlns="http://www.w3.org/1999/xhtml" class="labelBkg" style="display: table-cell; white-space: nowrap; line-height: 1.5; max-width: 200px; text-align: center;"><span class="edgeLabel"></span></div></foreignObject></g></g><g class="edgeLabel"><g class="label" data-id="edge6" transform="translate(0, 0)"><foreignObject width="0" height="0"><div xmlns="http://www.w3.org/1999/xhtml" class="labelBkg" style="display: table-cell; white-space: nowrap; line-height: 1.5; max-width: 200px; text-align: center;"><span class="edgeLabel"></span></div></foreignObject></g></g><g class="edgeLabel"><g class="label" data-id="edge7" transform="translate(0, 0)"><foreignObject width="0" height="0"><div xmlns="http://www.w3.org/1999/xhtml" class="labelBkg" style="display: table-cell; white-space: nowrap; line-height: 1.5; max-width: 200px; text-align: center;"><span class="edgeLabel"></span></div></foreignObject></g></g><g class="edgeLabel"><g class="label" data-id="edge8" transform="translate(0, 0)"><foreignObject width="0" height="0"><div xmlns="http://www.w3.org/1999/xhtml" class="labelBkg" style="display: table-cell; white-space: nowrap; line-height: 1.5; max-width: 200px; text-align: center;"><span class="edgeLabel"></span></div></foreignObject></g></g><g class="edgeLabel"><g class="label" data-id="edge9" transform="translate(0, 0)"><foreignObject width="0" height="0"><div xmlns="http://www.w3.org/1999/xhtml" class="labelBkg" style="display: table-cell; white-space: nowrap; line-height: 1.5; max-width: 200px; text-align: center;"><span class="edgeLabel"></span></div></foreignObject></g></g><g class="edgeLabel"><g class="label" data-id="edge10" transform="translate(0, 0)"><foreignObject width="0" height="0"><div xmlns="http://www.w3.org/1999/xhtml" class="labelBkg" style="display: table-cell; white-space: nowrap; line-height: 1.5; max-width: 200px; text-align: center;"><span class="edgeLabel"></span></div></foreignObject></g></g><g class="edgeLabel"><g class="label" data-id="edge11" transform="translate(0, 0)"><foreignObject width="0" height="0"><div xmlns="http://www.w3.org/1999/xhtml" class="labelBkg" style="display: table-cell; white-space: nowrap; line-height: 1.5; max-width: 200px; text-align: center;"><span class="edgeLabel"></span></div></foreignObject></g></g><g class="edgeLabel"><g class="label" data-id="edge12" transform="translate(0, 0)"><foreignObject width="0" height="0"><div xmlns="http://www.w3.org/1999/xhtml" class="labelBkg" style="display: table-cell; white-space: nowrap; line-height: 1.5; max-width: 200px; text-align: center;"><span class="edgeLabel"></span></div></foreignObject></g></g><g class="edgeLabel"><g class="label" data-id="edge13" transform="translate(0, 0)"><foreignObject width="0" height="0"><div xmlns="http://www.w3.org/1999/xhtml" class="labelBkg" style="display: table-cell; white-space: nowrap; line-height: 1.5; max-width: 200px; text-align: center;"><span class="edgeLabel"></span></div></foreignObject></g></g><g class="edgeLabel"><g class="label" data-id="edge14" transform="translate(0, 0)"><foreignObject width="0" height="0"><div xmlns="http://www.w3.org/1999/xhtml" class="labelBkg" style="display: table-cell; white-space: nowrap; line-height: 1.5; max-width: 200px; text-align: center;"><span class="edgeLabel"></span></div></foreignObject></g></g><g class="edgeLabel"><g class="label" data-id="edge15" transform="translate(0, 0)"><foreignObject width="0" height="0"><div xmlns="http://www.w3.org/1999/xhtml" class="labelBkg" style="display: table-cell; white-space: nowrap; line-height: 1.5; max-width: 200px; text-align: center;"><span class="edgeLabel"></span></div></foreignObject></g></g><g class="edgeLabel"><g class="label" data-id="edge16" transform="translate(0, 0)"><foreignObject width="0" height="0"><div xmlns="http://www.w3.org/1999/xhtml" class="labelBkg" style="display: table-cell; white-space: nowrap; line-height: 1.5; max-width: 200px; text-align: center;"><span class="edgeLabel"></span></div></foreignObject></g></g><g class="edgeLabel"><g class="label" data-id="edge17" transform="translate(0, 0)"><foreignObject width="0" height="0"><div xmlns="http://www.w3.org/1999/xhtml" class="labelBkg" style="display: table-cell; white-space: nowrap; line-height: 1.5; max-width: 200px; text-align: center;"><span class="edgeLabel"></span></div></foreignObject></g></g><g class="edgeLabel"><g class="label" data-id="edge18" transform="translate(0, 0)"><foreignObject width="0" height="0"><div xmlns="http://www.w3.org/1999/xhtml" class="labelBkg" style="display: table-cell; white-space: nowrap; line-height: 1.5; max-width: 200px; text-align: center;"><span class="edgeLabel"></span></div></foreignObject></g></g><g class="edgeLabel"><g class="label" data-id="edge19" transform="translate(0, 0)"><foreignObject width="0" height="0"><div xmlns="http://www.w3.org/1999/xhtml" class="labelBkg" style="display: table-cell; white-space: nowrap; line-height: 1.5; max-width: 200px; text-align: center;"><span class="edgeLabel"></span></div></foreignObject></g></g><g class="edgeLabel"><g class="label" data-id="edge20" transform="translate(0, 0)"><foreignObject width="0" height="0"><div xmlns="http://www.w3.org/1999/xhtml" class="labelBkg" style="display: table-cell; white-space: nowrap; line-height: 1.5; max-width: 200px; text-align: center;"><span class="edgeLabel"></span></div></foreignObject></g></g></g><g class="nodes"><g class="node default" id="my-svg-state-root_start-0" data-look="classic" transform="translate(15, 277.25)"><circle class="state-start" r="7" width="14" height="14"/></g><g class="node  statediagram-state" id="my-svg-state-INGEST-11" data-look="classic" transform="translate(104.9140625, 277.25)"><rect class="basic label-container" style="" rx="5" ry="5" x="-32.9140625" y="-18.5" width="65.828125" height="37"/><g class="label" style="" transform="translate(-24.9140625, -10.5)"><rect/><foreignObject width="49.828125" height="21"><div xmlns="http://www.w3.org/1999/xhtml" style="display: table-cell; white-space: nowrap; line-height: 1.5; max-width: 200px; text-align: center;"><span class="nodeLabel markdown-node-label"><p>INGEST</p></span></div></foreignObject></g></g><g class="node  statediagram-state" id="my-svg-state-NORMALIZE-12" data-look="classic" transform="translate(235.8046875, 250.5)"><rect class="basic label-container" style="" rx="5" ry="5" x="-47.9765625" y="-18.5" width="95.953125" height="37"/><g class="label" style="" transform="translate(-39.9765625, -10.5)"><rect/><foreignObject width="79.953125" height="21"><div xmlns="http://www.w3.org/1999/xhtml" style="display: table-cell; white-space: nowrap; line-height: 1.5; max-width: 200px; text-align: center;"><span class="nodeLabel markdown-node-label"><p>NORMALIZE</p></span></div></foreignObject></g></g><g class="node  statediagram-state" id="my-svg-state-CLASSIFY-13" data-look="classic" transform="translate(374.2734375, 223.75)"><rect class="basic label-container" style="" rx="5" ry="5" x="-40.4921875" y="-18.5" width="80.984375" height="37"/><g class="label" style="" transform="translate(-32.4921875, -10.5)"><rect/><foreignObject width="64.984375" height="21"><div xmlns="http://www.w3.org/1999/xhtml" style="display: table-cell; white-space: nowrap; line-height: 1.5; max-width: 200px; text-align: center;"><span class="nodeLabel markdown-node-label"><p>CLASSIFY</p></span></div></foreignObject></g></g><g class="node  statediagram-state" id="my-svg-state-VALIDATE-14" data-look="classic" transform="translate(504.59375, 197)"><rect class="basic label-container" style="" rx="5" ry="5" x="-39.828125" y="-18.5" width="79.65625" height="37"/><g class="label" style="" transform="translate(-31.828125, -10.5)"><rect/><foreignObject width="63.65625" height="21"><div xmlns="http://www.w3.org/1999/xhtml" style="display: table-cell; white-space: nowrap; line-height: 1.5; max-width: 200px; text-align: center;"><span class="nodeLabel markdown-node-label"><p>VALIDATE</p></span></div></foreignObject></g></g><g class="node  statediagram-state" id="my-svg-state-MERGE-15" data-look="classic" transform="translate(626.3046875, 170.25)"><rect class="basic label-container" style="" rx="5" ry="5" x="-31.8828125" y="-18.5" width="63.765625" height="37"/><g class="label" style="" transform="translate(-23.8828125, -10.5)"><rect/><foreignObject width="47.765625" height="21"><div xmlns="http://www.w3.org/1999/xhtml" style="display: table-cell; white-space: nowrap; line-height: 1.5; max-width: 200px; text-align: center;"><span class="nodeLabel markdown-node-label"><p>MERGE</p></span></div></foreignObject></g></g><g class="node  statediagram-state" id="my-svg-state-REBALANCE-16" data-look="classic" transform="translate(756.640625, 143.5)"><rect class="basic label-container" style="" rx="5" ry="5" x="-48.453125" y="-18.5" width="96.90625" height="37"/><g class="label" style="" transform="translate(-40.453125, -10.5)"><rect/><foreignObject width="80.90625" height="21"><div xmlns="http://www.w3.org/1999/xhtml" style="display: table-cell; white-space: nowrap; line-height: 1.5; max-width: 200px; text-align: center;"><span class="nodeLabel markdown-node-label"><p>REBALANCE</p></span></div></foreignObject></g></g><g class="node  statediagram-state" id="my-svg-state-SCHEDULE-17" data-look="classic" transform="translate(899.7265625, 116.75)"><rect class="basic label-container" style="" rx="5" ry="5" x="-44.6328125" y="-18.5" width="89.265625" height="37"/><g class="label" style="" transform="translate(-36.6328125, -10.5)"><rect/><foreignObject width="73.265625" height="21"><div xmlns="http://www.w3.org/1999/xhtml" style="display: table-cell; white-space: nowrap; line-height: 1.5; max-width: 200px; text-align: center;"><span class="nodeLabel markdown-node-label"><p>SCHEDULE</p></span></div></foreignObject></g></g><g class="node  statediagram-state" id="my-svg-state-REVIEW-18" data-look="classic" transform="translate(1028.1875, 90)"><rect class="basic label-container" style="" rx="5" ry="5" x="-33.828125" y="-18.5" width="67.65625" height="37"/><g class="label" style="" transform="translate(-25.828125, -10.5)"><rect/><foreignObject width="51.65625" height="21"><div xmlns="http://www.w3.org/1999/xhtml" style="display: table-cell; white-space: nowrap; line-height: 1.5; max-width: 200px; text-align: center;"><span class="nodeLabel markdown-node-label"><p>REVIEW</p></span></div></foreignObject></g></g><g class="node  statediagram-state" id="my-svg-state-EMIT-19" data-look="classic" transform="translate(1136.3125, 63.25)"><rect class="basic label-container" style="" rx="5" ry="5" x="-24.296875" y="-18.5" width="48.59375" height="37"/><g class="label" style="" transform="translate(-16.296875, -10.5)"><rect/><foreignObject width="32.59375" height="21"><div xmlns="http://www.w3.org/1999/xhtml" style="display: table-cell; white-space: nowrap; line-height: 1.5; max-width: 200px; text-align: center;"><span class="nodeLabel markdown-node-label"><p>EMIT</p></span></div></foreignObject></g></g><g class="node  statediagram-state" id="my-svg-state-APPLY-20" data-look="classic" transform="translate(1239.7578125, 36.5)"><rect class="basic label-container" style="" rx="5" ry="5" x="-29.1484375" y="-18.5" width="58.296875" height="37"/><g class="label" style="" transform="translate(-21.1484375, -10.5)"><rect/><foreignObject width="42.296875" height="21"><div xmlns="http://www.w3.org/1999/xhtml" style="display: table-cell; white-space: nowrap; line-height: 1.5; max-width: 200px; text-align: center;"><span class="nodeLabel markdown-node-label"><p>APPLY</p></span></div></foreignObject></g></g><g class="node  statediagram-state" id="my-svg-state-DONE-10" data-look="classic" transform="translate(1350.046875, 26.5)"><rect class="basic label-container" style="" rx="5" ry="5" x="-27.5546875" y="-18.5" width="55.109375" height="37"/><g class="label" style="" transform="translate(-19.5546875, -10.5)"><rect/><foreignObject width="39.109375" height="21"><div xmlns="http://www.w3.org/1999/xhtml" style="display: table-cell; white-space: nowrap; line-height: 1.5; max-width: 200px; text-align: center;"><span class="nodeLabel markdown-node-label"><p>DONE</p></span></div></foreignObject></g></g><g class="node  statediagram-state" id="my-svg-state-FAILED-20" data-look="classic" transform="translate(1350.046875, 270.75)"><rect class="basic label-container" style="" rx="5" ry="5" x="-31.140625" y="-18.5" width="62.28125" height="37"/><g class="label" style="" transform="translate(-23.140625, -10.5)"><rect/><foreignObject width="46.28125" height="21"><div xmlns="http://www.w3.org/1999/xhtml" style="display: table-cell; white-space: nowrap; line-height: 1.5; max-width: 200px; text-align: center;"><span class="nodeLabel markdown-node-label"><p>FAILED</p></span></div></foreignObject></g></g></g></g></g><defs><filter id="my-svg-drop-shadow" height="130%" width="130%"><feDropShadow dx="4" dy="4" stdDeviation="0" flood-opacity="0.06" flood-color="#000000"/></filter></defs><defs><filter id="my-svg-drop-shadow-small" height="150%" width="150%"><feDropShadow dx="2" dy="2" stdDeviation="0" flood-opacity="0.06" flood-color="#000000"/></filter></defs><linearGradient id="my-svg-gradient" gradientUnits="objectBoundingBox" x1="0%" y1="0%" x2="100%" y2="0%"><stop offset="0%" stop-color="hsl(0, 0%, 83.3333333333%)" stop-opacity="1"/><stop offset="100%" stop-color="hsl(0, 0%, 88.9215686275%)" stop-opacity="1"/></linearGradient></svg>