<svg id="my-svg" width="100%" xmlns="http://www.w3.org/2000/svg" xmlns:xlink="http://www.w3.org/1999/xlink" class="classDiagram" style="max-width: 865.055px; background-color: transparent;" viewBox="0 0 865.0546875 441" role="graphics-document document" aria-roledescription="class"><style>#my-svg{font-family:system-ui,-apple-system,sans-serif;font-size:14px;fill:#000000;}@keyframes edge-animation-frame{from{stroke-dashoffset:0;}}@keyframes dash{to{stroke-dashoffset:0;}}#my-svg .edge-animation-slow{stroke-dasharray:9,5!important;stroke-dashoffset:900;animation:dash 50s linear infinite;stroke-linecap:round;}#my-svg .edge-animation-fast{stroke-dasharray:9,5!important;stroke-dashoffset:900;animation:dash 20s linear infinite;stroke-linecap:round;}#my-svg .error-icon{fill:#552222;}#my-svg .error-text{fill:#552222;stroke:#552222;}#my-svg .edge-thickness-normal{stroke-width:1px;}#my-svg .edge-thickness-thick{stroke-width:3.5px;}#my-svg .edge-pattern-solid{stroke-dasharray:0;}#my-svg .edge-thickness-invisible{stroke-width:0;fill:none;}#my-svg .edge-pattern-dashed{stroke-dasharray:3;}#my-svg .edge-pattern-dotted{stroke-dasharray:2;}#my-svg .marker{fill:#666;stroke:#666;}#my-svg .marker.cross{stroke:#666;}#my-svg svg{font-family:system-ui,-apple-system,sans-serif;font-size:14px;}#my-svg p{margin:0;}#my-svg g.classGroup text{fill:#999;stroke:none;font-family:system-ui,-apple-system,sans-serif;font-size:10px;}#my-svg g.classGroup text .title{font-weight:bolder;}#my-svg .nodeLabel,#my-svg .edgeLabel{color:#111111;}#my-svg .edgeLabel .label rect{fill:#eee;}#my-svg .label text{fill:#111111;}#my-svg .labelBkg{background:#eee;}#my-svg .edgeLabel .label span{background:#eee;}#my-svg .classTitle{font-weight:bolder;}#my-svg .node rect,#my-svg .node circle,#my-svg .node ellipse,#my-svg .node polygon,#my-svg .node path{fill:#eee;stroke:#999;stroke-width:1px;}#my-svg .divider{stroke:#999;stroke-width:1;}#my-svg g.clickable{cursor:pointer;}#my-svg g.classGroup rect{fill:#eee;stroke:#999;}#my-svg g.classGroup line{stroke:#999;stroke-width:1;}#my-svg .classLabel .box{stroke:none;stroke-width:0;fill:#eee;opacity:0.5;}#my-svg .classLabel .label{fill:#999;font-size:10px;}#my-svg .relation{stroke:#666;stroke-width:1;fill:none;}#my-svg .dashed-line{stroke-dasharray:3;}#my-svg .dotted-line{stroke-dasharray:1 2;}#my-svg #compositionStart,#my-svg .composition{fill:#666!important;stroke:#666!important;stroke-width:1;}#my-svg #compositionEnd,#my-svg .composition{fill:#666!important;stroke:#666!important;stroke-width:1;}#my-svg #dependencyStart,#my-svg .dependency{fill:#666!important;stroke:#666!important;stroke-width:1;}#my-svg #dependencyStart,#my-svg .dependency{fill:#666!important;stroke:#666!important;stroke-width:1;}#my-svg #extensionStart,#my-svg .extension{fill:transparent!important;stroke:#666!important;stroke-width:1;}#my-svg #extensionEnd,#my-svg .extension{fill:transparent!important;stroke:#666!important;stroke-width:1;}#my-svg #aggregationStart,#my-svg .aggregation{fill:transparent!important;stroke:#666!important;stroke-width:1;}#my-svg #aggregationEnd,#my-svg .aggregation{fill:transparent!important;stroke:#666!important;stroke-width:1;}#my-svg #lollipopStart,#my-svg .lollipop{fill:#eee!important;stroke:#666!important;stroke-width:1;}#my-svg #lollipopEnd,#my-svg .lollipop{fill:#eee!important;stroke:#666!important;stroke-width:1;}#my-svg .edgeTerminals{font-size:11px;line-height:initial;}#my-svg .classTitleText{text-anchor:middle;font-size:18px;fill:#000000;}#my-svg .label-icon{display:inline-block;height:1em;overflow:visible;vertical-align:-0.125em;}#my-svg .node .label-icon path{fill:currentColor;stroke:revert;stroke-width:revert;}#my-svg :root{--mermaid-font-family:"trebuchet ms",verdana,arial,sans-serif;}</style><g><defs><marker id="my-svg_class-aggregationStart" class="marker aggregation class" refX="18" refY="7" markerWidth="190" markerHeight="240" orient="auto"><path d="M 18,7 L9,13 L1,7 L9,1 Z"/></marker></defs><defs><marker id="my-svg_class-aggregationEnd" class="marker aggregation class" refX="1" refY="7" markerWidth="20" markerHeight="28" orient="auto"><path d="M 18,7 L9,13 L1,7 L9,1 Z"/></marker></defs><defs><marker id="my-svg_class-extensionStart" class="marker extension class" refX="18" refY="7" markerWidth="190" markerHeight="240" orient="auto"><path d="M 1,7 L18,13 V 1 Z"/></marker></defs><defs><marker id="my-svg_class-extensionEnd" class="marker extension class" refX="1" refY="7" markerWidth="20" markerHeight="28" orient="auto"><path d="M 1,1 V 13 L18,7 Z"/></marker></defs><defs><marker id="my-svg_class-compositionStart" class="marker composition class" refX="18" refY="7" markerWidth="190" markerHeight="240" orient="auto"><path d="M 18,7 L9,13 L1,7 L9,1 Z"/></marker></defs><defs><marker id="my-svg_class-compositionEnd" class="marker composition class" refX="1" refY="7" markerWidth="20" markerHeight="28" orient="auto"><path d="M 18,7 L9,13 L1,7 L9,1 Z"/></marker></defs><defs><marker id="my-svg_class-dependencyStart" class="marker dependency class" refX="6" refY="7" markerWidth="190" markerHeight="240" orient="auto"><path d="M 5,7 L9,13 L1,7 L9,1 Z"/></marker></defs><defs><marker id="my-svg_class-dependencyEnd" class="marker dependency class" refX="13" refY="7" markerWidth="20" markerHeight="28" orient="auto"><path d="M 18,7 L9,13 L14,7 L9,1 Z"/></marker></defs><defs><marker id="my-svg_class-lollipopStart" class="marker lollipop class" refX="13" refY="7" markerWidth="190" markerHeight="240" orient="auto"><circle stroke="black" fill="transparent" cx="7" cy="7" r="6"/></marker></defs><defs><marker id="my-svg_class-lollipopEnd" class="marker lollipop class" refX="1" refY="7" markerWidth="190" markerHeight="240" orient="auto"><circle stroke="black" fill="transparent" cx="7" cy="7" r="6"/></marker></defs><g class="root"><g class="clusters"/><g class="edgePaths"><path d="M417.141,195.5L417.141,201.417C417.141,207.333,417.141,219.167,427.045,232.405C436.948,245.644,456.756,260.288,466.66,267.61L476.564,274.932" id="id_JsonEnvelope_Diagnostic_1" class="edge-thickness-normal edge-pattern-solid relation" style=";;;" data-edge="true" data-et="edge" data-id="id_JsonEnvelope_Diagnostic_1" data-points="W3sieCI6NDE3LjE0MDYyNSwieSI6MTk1LjV9LHsieCI6NDE3LjE0MDYyNSwieSI6MjMxfSx7IngiOjQ4MS4zODg2NzE4NzUsInkiOjI3OC40OTkyMzY2NzAzNTYxfV0=" marker-end="url(#my-svg_class-dependencyEnd)"/><path d="M724.184,195.5L724.184,201.417C724.184,207.333,724.184,219.167,714.28,232.405C704.376,245.644,684.568,260.288,674.664,267.61L664.76,274.932" id="id_JsonErrorEnvelope_Diagnostic_2" class="edge-thickness-normal edge-pattern-solid relation" style=";;;" data-edge="true" data-et="edge" data-id="id_JsonErrorEnvelope_Diagnostic_2" data-points="W3sieCI6NzI0LjE4MzU5Mzc1LCJ5IjoxOTUuNX0seyJ4Ijo3MjQuMTgzNTkzNzUsInkiOjIzMX0seyJ4Ijo2NTkuOTM1NTQ2ODc1LCJ5IjoyNzguNDk5MjM2NjcwMzU2MX1d" marker-end="url(#my-svg_class-dependencyEnd)"/></g><g class="edgeLabels"><g class="edgeLabel"><g class="label" data-id="id_JsonEnvelope_Diagnostic_1" transform="translate(0, 0)"><foreignObject width="0" height="0"><div xmlns="http://www.w3.org/1999/xhtml" class="labelBkg" style="display: table-cell; white-space: nowrap; line-height: 1.5; max-width: 200px; text-align: center;"><span class="edgeLabel"></span></div></foreignObject></g></g><g class="edgeLabel"><g class="label" data-id="id_JsonErrorEnvelope_Diagnostic_2" transform="translate(0, 0)"><foreignObject width="0" height="0"><div xmlns="http://www.w3.org/1999/xhtml" class="labelBkg" style="display: table-cell; white-space: nowrap; line-height: 1.5; max-width: 200px; text-align: center;"><span class="edgeLabel"></span></div></foreignObject></g></g></g><g class="nodes"><g class="node default" id="classId-JsonStreamEvent-0" transform="translate(125.484375, 107)"><g class="basic label-container"><path d="M-117.484375 -99 L117.484375 -99 L117.484375 99 L-117.484375 99" stroke="none" stroke-width="0" fill="#eee" style=""/><path d="M-117.484375 -99 C-30.427366163807406 -99, 56.62964267238519 -99, 117.484375 -99 M-117.484375 -99 C-35.45803477909034 -99, 46.56830544181932 -99, 117.484375 -99 M117.484375 -99 C117.484375 -20.535669565764337, 117.484375 57.928660868471326, 117.484375 99 M117.484375 -99 C117.484375 -22.34285787126184, 117.484375 54.31428425747632, 117.484375 99 M117.484375 99 C68.416671526339 99, 19.348968052678003 99, -117.484375 99 M117.484375 99 C60.11355414238329 99, 2.7427332847665866 99, -117.484375 99 M-117.484375 99 C-117.484375 36.88168543140858, -117.484375 -25.236629137182845, -117.484375 -99 M-117.484375 99 C-117.484375 39.796967737597306, -117.484375 -19.406064524805387, -117.484375 -99" stroke="#999" stroke-width="1.3" fill="none" stroke-dasharray="0 0" style=""/></g><g class="annotation-group text" transform="translate(0, -75)"/><g class="label-group text" transform="translate(-60.984375, -75)"><g class="label" style="font-weight: bolder" transform="translate(0,-10.5)"><foreignObject width="121.96875" height="21"><div xmlns="http://www.w3.org/1999/xhtml" style="display: table-cell; white-space: nowrap; line-height: 1.5; max-width: 161px; text-align: center;"><span class="nodeLabel markdown-node-label" style=""><p>JsonStreamEvent</p></span></div></foreignObject></g></g><g class="members-group text" transform="translate(-105.484375, -30)"><g class="label" style="" transform="translate(0,-10.5)"><foreignObject width="149.984375" height="21"><div xmlns="http://www.w3.org/1999/xhtml" style="display: table-cell; white-space: nowrap; line-height: 1.5; max-width: 200px; text-align: center;"><span class="nodeLabel markdown-node-label" style=""><p>+event: start | progress</p></span></div></foreignObject></g><g class="label" style="" transform="translate(0,10.5)"><foreignObject width="117.3125" height="21"><div xmlns="http://www.w3.org/1999/xhtml" style="display: table-cell; white-space: nowrap; line-height: 1.5; max-width: 171px; text-align: center;"><span class="nodeLabel markdown-node-label" style=""><p>+command: string</p></span></div></foreignObject></g><g class="label" style="" transform="translate(0,31.5)"><foreignObject width="78.53125" height="21"><div xmlns="http://www.w3.org/1999/xhtml" style="display: table-cell; white-space: nowrap; line-height: 1.5; max-width: 132px; text-align: center;"><span class="nodeLabel markdown-node-label" style=""><p>+at: number</p></span></div></foreignObject></g><g class="label" style="" transform="translate(0,52.5)"><foreignObject width="118.328125" height="21"><div xmlns="http://www.w3.org/1999/xhtml" style="display: table-cell; white-space: nowrap; line-height: 1.5; max-width: 170px; text-align: center;"><span class="nodeLabel markdown-node-label" style=""><p>+message?: string</p></span></div></foreignObject></g><g class="label" style="" transform="translate(0,73.5)"><foreignObject width="97.890625" height="21"><div xmlns="http://www.w3.org/1999/xhtml" style="display: table-cell; white-space: nowrap; line-height: 1.5; max-width: 152px; text-align: center;"><span class="nodeLabel markdown-node-label" style=""><p>+data?: Record</p></span></div></foreignObject></g></g><g class="methods-group text" transform="translate(-105.484375, 99)"/><g class="divider" style=""><path d="M-117.484375 -54 C-57.999261718319985 -54, 1.485851563360029 -54, 117.484375 -54 M-117.484375 -54 C-56.668451150965936 -54, 4.147472698068128 -54, 117.484375 -54" stroke="#999" stroke-width="1.3" fill="none" stroke-dasharray="0 0" style=""/></g><g class="divider" style=""><path d="M-117.484375 75 C-62.507842703965245 75, -7.531310407930491 75, 117.484375 75 M-117.484375 75 C-62.39898870739207 75, -7.3136024147841425 75, 117.484375 75" stroke="#999" stroke-width="1.3" fill="none" stroke-dasharray="0 0" style=""/></g></g><g class="node default" id="classId-JsonEnvelope-1" transform="translate(417.140625, 107)"><g class="basic label-container"><path d="M-124.171875 -88.5 L124.171875 -88.5 L124.171875 88.5 L-124.171875 88.5" stroke="none" stroke-width="0" fill="#eee" style=""/><path d="M-124.171875 -88.5 C-42.43523291306484 -88.5, 39.301409173870326 -88.5, 124.171875 -88.5 M-124.171875 -88.5 C-34.7841189717747 -88.5, 54.603637056450594 -88.5, 124.171875 -88.5 M124.171875 -88.5 C124.171875 -50.6550348022308, 124.171875 -12.810069604461603, 124.171875 88.5 M124.171875 -88.5 C124.171875 -50.34371828835396, 124.171875 -12.187436576707924, 124.171875 88.5 M124.171875 88.5 C32.167207831087836 88.5, -59.83745933782433 88.5, -124.171875 88.5 M124.171875 88.5 C46.47576410058255 88.5, -31.220346798834896 88.5, -124.171875 88.5 M-124.171875 88.5 C-124.171875 18.1152424450961, -124.171875 -52.2695151098078, -124.171875 -88.5 M-124.171875 88.5 C-124.171875 26.712399894720477, -124.171875 -35.075200210559046, -124.171875 -88.5" stroke="#999" stroke-width="1.3" fill="none" stroke-dasharray="0 0" style=""/></g><g class="annotation-group text" transform="translate(0, -64.5)"/><g class="label-group text" transform="translate(-47.921875, -64.5)"><g class="label" style="font-weight: bolder" transform="translate(0,-10.5)"><foreignObject width="95.84375" height="21"><div xmlns="http://www.w3.org/1999/xhtml" style="display: table-cell; white-space: nowrap; line-height: 1.5; max-width: 139px; text-align: center;"><span class="nodeLabel markdown-node-label" style=""><p>JsonEnvelope</p></span></div></foreignObject></g></g><g class="members-group text" transform="translate(-112.171875, -19.5)"><g class="label" style="" transform="translate(0,-10.5)"><foreignObject width="95.078125" height="21"><div xmlns="http://www.w3.org/1999/xhtml" style="display: table-cell; white-space: nowrap; line-height: 1.5; max-width: 145px; text-align: center;"><span class="nodeLabel markdown-node-label" style=""><p>+success: true</p></span></div></foreignObject></g><g class="label" style="" transform="translate(0,10.5)"><foreignObject width="117.3125" height="21"><div xmlns="http://www.w3.org/1999/xhtml" style="display: table-cell; white-space: nowrap; line-height: 1.5; max-width: 171px; text-align: center;"><span class="nodeLabel markdown-node-label" style=""><p>+command: string</p></span></div></foreignObject></g><g class="label" style="" transform="translate(0,31.5)"><foreignObject width="90.875" height="21"><div xmlns="http://www.w3.org/1999/xhtml" style="display: table-cell; white-space: nowrap; line-height: 1.5; max-width: 145px; text-align: center;"><span class="nodeLabel markdown-node-label" style=""><p>+data: Record</p></span></div></foreignObject></g><g class="label" style="" transform="translate(0,52.5)"><foreignObject width="176.421875" height="21"><div xmlns="http://www.w3.org/1999/xhtml" style="display: table-cell; white-space: nowrap; line-height: 1.5; max-width: 231px; text-align: center;"><span class="nodeLabel markdown-node-label" style=""><p>+diagnostics?: Diagnostic[]</p></span></div></foreignObject></g></g><g class="methods-group text" transform="translate(-112.171875, 88.5)"/><g class="divider" style=""><path d="M-124.171875 -43.5 C-57.05195314958591 -43.5, 10.067968700828175 -43.5, 124.171875 -43.5 M-124.171875 -43.5 C-25.077635765404153 -43.5, 74.0166034691917 -43.5, 124.171875 -43.5" stroke="#999" stroke-width="1.3" fill="none" stroke-dasharray="0 0" style=""/></g><g class="divider" style=""><path d="M-124.171875 64.5 C-57.32481753151376 64.5, 9.522239936972483 64.5, 124.171875 64.5 M-124.171875 64.5 C-65.9862382510567 64.5, -7.800601502113395 64.5, 124.171875 64.5" stroke="#999" stroke-width="1.3" fill="none" stroke-dasharray="0 0" style=""/></g></g><g class="node default" id="classId-JsonErrorEnvelope-2" transform="translate(724.18359375, 107)"><g class="basic label-container"><path d="M-132.87109375 -88.5 L132.87109375 -88.5 L132.87109375 88.5 L-132.87109375 88.5" stroke="none" stroke-width="0" fill="#eee" style=""/><path d="M-132.87109375 -88.5 C-35.79792997868951 -88.5, 61.27523379262098 -88.5, 132.87109375 -88.5 M-132.87109375 -88.5 C-71.09022220074799 -88.5, -9.309350651495976 -88.5, 132.87109375 -88.5 M132.87109375 -88.5 C132.87109375 -21.683393337196023, 132.87109375 45.133213325607954, 132.87109375 88.5 M132.87109375 -88.5 C132.87109375 -52.4486328742094, 132.87109375 -16.397265748418803, 132.87109375 88.5 M132.87109375 88.5 C74.68358146023951 88.5, 16.496069170479018 88.5, -132.87109375 88.5 M132.87109375 88.5 C47.330388318194196 88.5, -38.21031711361161 88.5, -132.87109375 88.5 M-132.87109375 88.5 C-132.87109375 48.56472597080329, -132.87109375 8.629451941606575, -132.87109375 -88.5 M-132.87109375 88.5 C-132.87109375 20.794540943624057, -132.87109375 -46.91091811275189, -132.87109375 -88.5" stroke="#999" stroke-width="1.3" fill="none" stroke-dasharray="0 0" style=""/></g><g class="annotation-group text" transform="translate(0, -64.5)"/><g class="label-group text" transform="translate(-65.3203125, -64.5)"><g class="label" style="font-weight: bolder" transform="translate(0,-10.5)"><foreignObject width="130.640625" height="21"><div xmlns="http://www.w3.org/1999/xhtml" style="display: table-cell; white-space: nowrap; line-height: 1.5; max-width: 173px; text-align: center;"><span class="nodeLabel markdown-node-label" style=""><p>JsonErrorEnvelope</p></span></div></foreignObject></g></g><g class="members-group text" transform="translate(-120.87109375, -19.5)"><g class="label" style="" transform="translate(0,-10.5)"><foreignObject width="99.796875" height="21"><div xmlns="http://www.w3.org/1999/xhtml" style="display: table-cell; white-space: nowrap; line-height: 1.5; max-width: 150px; text-align: center;"><span class="nodeLabel markdown-node-label" style=""><p>+success: false</p></span></div></foreignObject></g><g class="label" style="" transform="translate(0,10.5)"><foreignObject width="84.84375" height="21"><div xmlns="http://www.w3.org/1999/xhtml" style="display: table-cell; white-space: nowrap; line-height: 1.5; max-width: 139px; text-align: center;"><span class="nodeLabel markdown-node-label" style=""><p>+error: string</p></span></div></foreignObject></g><g class="label" style="" transform="translate(0,31.5)"><foreignObject width="97.890625" height="21"><div xmlns="http://www.w3.org/1999/xhtml" style="display: table-cell; white-space: nowrap; line-height: 1.5; max-width: 152px; text-align: center;"><span class="nodeLabel markdown-node-label" style=""><p>+data?: Record</p></span></div></foreignObject></g><g class="label" style="" transform="translate(0,52.5)"><foreignObject width="176.421875" height="21"><div xmlns="http://www.w3.org/1999/xhtml" style="display: table-cell; white-space: nowrap; line-height: 1.5; max-width: 231px; text-align: center;"><span class="nodeLabel markdown-node-label" style=""><p>+diagnostics?: Diagnostic[]</p></span></div></foreignObject></g></g><g class="methods-group text" transform="translate(-120.87109375, 88.5)"/><g class="divider" style=""><path d="M-132.87109375 -43.5 C-62.11115375636973 -43.5, 8.648786237260538 -43.5, 132.87109375 -43.5 M-132.87109375 -43.5 C-76.77499294967055 -43.5, -20.67889214934108 -43.5, 132.87109375 -43.5" stroke="#999" stroke-width="1.3" fill="none" stroke-dasharray="0 0" style=""/></g><g class="divider" style=""><path d="M-132.87109375 64.5 C-63.95709478028735 64.5, 4.956904189425302 64.5, 132.87109375 64.5 M-132.87109375 64.5 C-63.999794978223704 64.5, 4.871503793552591 64.5, 132.87109375 64.5" stroke="#999" stroke-width="1.3" fill="none" stroke-dasharray="0 0" style=""/></g></g><g class="node default" id="classId-Diagnostic-3" transform="translate(570.662109375, 344.5)"><g class="basic label-container"><path d="M-89.2734375 -88.5 L89.2734375 -88.5 L89.2734375 88.5 L-89.2734375 88.5" stroke="none" stroke-width="0" fill="#eee" style=""/><path d="M-89.2734375 -88.5 C-37.2941429659798 -88.5, 14.685151568040396 -88.5, 89.2734375 -88.5 M-89.2734375 -88.5 C-38.384341676385795 -88.5, 12.504754147228411 -88.5, 89.2734375 -88.5 M89.2734375 -88.5 C89.2734375 -18.34577786994052, 89.2734375 51.80844426011896, 89.2734375 88.5 M89.2734375 -88.5 C89.2734375 -47.99569026488037, 89.2734375 -7.491380529760747, 89.2734375 88.5 M89.2734375 88.5 C46.54963358558688 88.5, 3.8258296711737643 88.5, -89.2734375 88.5 M89.2734375 88.5 C45.160194341084086 88.5, 1.046951182168172 88.5, -89.2734375 88.5 M-89.2734375 88.5 C-89.2734375 30.195382636509024, -89.2734375 -28.109234726981953, -89.2734375 -88.5 M-89.2734375 88.5 C-89.2734375 45.271976266328664, -89.2734375 2.043952532657329, -89.2734375 -88.5" stroke="#999" stroke-width="1.3" fill="none" stroke-dasharray="0 0" style=""/></g><g class="annotation-group text" transform="translate(0, -64.5)"/><g class="label-group text" transform="translate(-36.828125, -64.5)"><g class="label" style="font-weight: bolder" transform="translate(0,-10.5)"><foreignObject width="73.65625" height="21"><div xmlns="http://www.w3.org/1999/xhtml" style="display: table-cell; white-space: nowrap; line-height: 1.5; max-width: 119px; text-align: center;"><span class="nodeLabel markdown-node-label" style=""><p>Diagnostic</p></span></div></foreignObject></g></g><g class="members-group text" transform="translate(-77.2734375, -19.5)"><g class="label" style="" transform="translate(0,-10.5)"><foreignObject width="85.5" height="21"><div xmlns="http://www.w3.org/1999/xhtml" style="display: table-cell; white-space: nowrap; line-height: 1.5; max-width: 139px; text-align: center;"><span class="nodeLabel markdown-node-label" style=""><p>+code: string</p></span></div></foreignObject></g><g class="label" style="" transform="translate(0,10.5)"><foreignObject width="111.296875" height="21"><div xmlns="http://www.w3.org/1999/xhtml" style="display: table-cell; white-space: nowrap; line-height: 1.5; max-width: 163px; text-align: center;"><span class="nodeLabel markdown-node-label" style=""><p>+message: string</p></span></div></foreignObject></g><g class="label" style="" transform="translate(0,31.5)"><foreignObject width="89.421875" height="21"><div xmlns="http://www.w3.org/1999/xhtml" style="display: table-cell; white-space: nowrap; line-height: 1.5; max-width: 143px; text-align: center;"><span class="nodeLabel markdown-node-label" style=""><p>+path?: string</p></span></div></foreignObject></g><g class="label" style="" transform="translate(0,52.5)"><foreignObject width="117.71875" height="21"><div xmlns="http://www.w3.org/1999/xhtml" style="display: table-cell; white-space: nowrap; line-height: 1.5; max-width: 172px; text-align: center;"><span class="nodeLabel markdown-node-label" style=""><p>+context?: Record</p></span></div></foreignObject></g></g><g class="methods-group text" transform="translate(-77.2734375, 88.5)"/><g class="divider" style=""><path d="M-89.2734375 -43.5 C-19.618144074675072 -43.5, 50.037149350649855 -43.5, 89.2734375 -43.5 M-89.2734375 -43.5 C-53.26975423372991 -43.5, -17.266070967459825 -43.5, 89.2734375 -43.5" stroke="#999" stroke-width="1.3" fill="none" stroke-dasharray="0 0" style=""/></g><g class="divider" style=""><path d="M-89.2734375 64.5 C-49.444621661364806 64.5, -9.615805822729612 64.5, 89.2734375 64.5 M-89.2734375 64.5 C-51.6082297731207 64.5, -13.943022046241396 64.5, 89.2734375 64.5" stroke="#999" stroke-width="1.3" fill="none" stroke-dasharray="0 0" style=""/></g></g></g></g></g></svg>