<svg id="my-svg" width="100%" xmlns="http://www.w3.org/2000/svg" xmlns:xlink="http://www.w3.org/1999/xlink" class="classDiagram" style="max-width: 1556.91px; background-color: transparent;" viewBox="0 0 1556.90625 947" role="graphics-document document" aria-roledescription="class"><style>#my-svg{font-family:system-ui,-apple-system,sans-serif;font-size:14px;fill:#000000;}@keyframes edge-animation-frame{from{stroke-dashoffset:0;}}@keyframes dash{to{stroke-dashoffset:0;}}#my-svg .edge-animation-slow{stroke-dasharray:9,5!important;stroke-dashoffset:900;animation:dash 50s linear infinite;stroke-linecap:round;}#my-svg .edge-animation-fast{stroke-dasharray:9,5!important;stroke-dashoffset:900;animation:dash 20s linear infinite;stroke-linecap:round;}#my-svg .error-icon{fill:#552222;}#my-svg .error-text{fill:#552222;stroke:#552222;}#my-svg .edge-thickness-normal{stroke-width:1px;}#my-svg .edge-thickness-thick{stroke-width:3.5px;}#my-svg .edge-pattern-solid{stroke-dasharray:0;}#my-svg .edge-thickness-invisible{stroke-width:0;fill:none;}#my-svg .edge-pattern-dashed{stroke-dasharray:3;}#my-svg .edge-pattern-dotted{stroke-dasharray:2;}#my-svg .marker{fill:#666;stroke:#666;}#my-svg .marker.cross{stroke:#666;}#my-svg svg{font-family:system-ui,-apple-system,sans-serif;font-size:14px;}#my-svg p{margin:0;}#my-svg g.classGroup text{fill:#999;stroke:none;font-family:system-ui,-apple-system,sans-serif;font-size:10px;}#my-svg g.classGroup text .title{font-weight:bolder;}#my-svg .nodeLabel,#my-svg .edgeLabel{color:#111111;}#my-svg .edgeLabel .label rect{fill:#eee;}#my-svg .label text{fill:#111111;}#my-svg .labelBkg{background:#eee;}#my-svg .edgeLabel .label span{background:#eee;}#my-svg .classTitle{font-weight:bolder;}#my-svg .node rect,#my-svg .node circle,#my-svg .node ellipse,#my-svg .node polygon,#my-svg .node path{fill:#eee;stroke:#999;stroke-width:1px;}#my-svg .divider{stroke:#999;stroke-width:1;}#my-svg g.clickable{cursor:pointer;}#my-svg g.classGroup rect{fill:#eee;stroke:#999;}#my-svg g.classGroup line{stroke:#999;stroke-width:1;}#my-svg .classLabel .box{stroke:none;stroke-width:0;fill:#eee;opacity:0.5;}#my-svg .classLabel .label{fill:#999;font-size:10px;}#my-svg .relation{stroke:#666;stroke-width:1;fill:none;}#my-svg .dashed-line{stroke-dasharray:3;}#my-svg .dotted-line{stroke-dasharray:1 2;}#my-svg #compositionStart,#my-svg .composition{fill:#666!important;stroke:#666!important;stroke-width:1;}#my-svg #compositionEnd,#my-svg .composition{fill:#666!important;stroke:#666!important;stroke-width:1;}#my-svg #dependencyStart,#my-svg .dependency{fill:#666!important;stroke:#666!important;stroke-width:1;}#my-svg #dependencyStart,#my-svg .dependency{fill:#666!important;stroke:#666!important;stroke-width:1;}#my-svg #extensionStart,#my-svg .extension{fill:transparent!important;stroke:#666!important;stroke-width:1;}#my-svg #extensionEnd,#my-svg .extension{fill:transparent!important;stroke:#666!important;stroke-width:1;}#my-svg #aggregationStart,#my-svg .aggregation{fill:transparent!important;stroke:#666!important;stroke-width:1;}#my-svg #aggregationEnd,#my-svg .aggregation{fill:transparent!important;stroke:#666!important;stroke-width:1;}#my-svg #lollipopStart,#my-svg .lollipop{fill:#eee!important;stroke:#666!important;stroke-width:1;}#my-svg #lollipopEnd,#my-svg .lollipop{fill:#eee!important;stroke:#666!important;stroke-width:1;}#my-svg .edgeTerminals{font-size:11px;line-height:initial;}#my-svg .classTitleText{text-anchor:middle;font-size:18px;fill:#000000;}#my-svg .label-icon{display:inline-block;height:1em;overflow:visible;vertical-align:-0.125em;}#my-svg .node .label-icon path{fill:currentColor;stroke:revert;stroke-width:revert;}#my-svg :root{--mermaid-font-family:"trebuchet ms",verdana,arial,sans-serif;}</style><g><defs><marker id="my-svg_class-aggregationStart" class="marker aggregation class" refX="18" refY="7" markerWidth="190" markerHeight="240" orient="auto"><path d="M 18,7 L9,13 L1,7 L9,1 Z"/></marker></defs><defs><marker id="my-svg_class-aggregationEnd" class="marker aggregation class" refX="1" refY="7" markerWidth="20" markerHeight="28" orient="auto"><path d="M 18,7 L9,13 L1,7 L9,1 Z"/></marker></defs><defs><marker id="my-svg_class-extensionStart" class="marker extension class" refX="18" refY="7" markerWidth="190" markerHeight="240" orient="auto"><path d="M 1,7 L18,13 V 1 Z"/></marker></defs><defs><marker id="my-svg_class-extensionEnd" class="marker extension class" refX="1" refY="7" markerWidth="20" markerHeight="28" orient="auto"><path d="M 1,1 V 13 L18,7 Z"/></marker></defs><defs><marker id="my-svg_class-compositionStart" class="marker composition class" refX="18" refY="7" markerWidth="190" markerHeight="240" orient="auto"><path d="M 18,7 L9,13 L1,7 L9,1 Z"/></marker></defs><defs><marker id="my-svg_class-compositionEnd" class="marker composition class" refX="1" refY="7" markerWidth="20" markerHeight="28" orient="auto"><path d="M 18,7 L9,13 L1,7 L9,1 Z"/></marker></defs><defs><marker id="my-svg_class-dependencyStart" class="marker dependency class" refX="6" refY="7" markerWidth="190" markerHeight="240" orient="auto"><path d="M 5,7 L9,13 L1,7 L9,1 Z"/></marker></defs><defs><marker id="my-svg_class-dependencyEnd" class="marker dependency class" refX="13" refY="7" markerWidth="20" markerHeight="28" orient="auto"><path d="M 18,7 L9,13 L14,7 L9,1 Z"/></marker></defs><defs><marker id="my-svg_class-lollipopStart" class="marker lollipop class" refX="13" refY="7" markerWidth="190" markerHeight="240" orient="auto"><circle stroke="black" fill="transparent" cx="7" cy="7" r="6"/></marker></defs><defs><marker id="my-svg_class-lollipopEnd" class="marker lollipop class" refX="1" refY="7" markerWidth="190" markerHeight="240" orient="auto"><circle stroke="black" fill="transparent" cx="7" cy="7" r="6"/></marker></defs><g class="root"><g class="clusters"/><g class="edgePaths"><path d="M410.945,333.342L349.165,363.535C287.385,393.728,163.826,454.114,102.046,501.974C40.266,549.833,40.266,585.167,40.266,620.5C40.266,655.833,40.266,691.167,99.421,722.062C158.576,752.956,276.885,779.413,336.04,792.641L395.195,805.869" id="id_CliContext_WarpGraphAdapter_1" class="edge-thickness-normal edge-pattern-solid relation" style=";;;" data-edge="true" data-et="edge" data-id="id_CliContext_WarpGraphAdapter_1" data-points="W3sieCI6NDEwLjk0NTMxMjUsInkiOjMzMy4zNDIwNjk2Njk5NjU4NH0seyJ4Ijo0MC4yNjU2MjUsInkiOjUxNC41fSx7IngiOjQwLjI2NTYyNSwieSI6NjIwLjV9LHsieCI6NDAuMjY1NjI1LCJ5Ijo3MjYuNX0seyJ4Ijo0MDEuMDUwNzgxMjUsInkiOjgwNy4xNzg4MzQ4NDIwMjc0fV0=" marker-end="url(#my-svg_class-dependencyEnd)"/><path d="M410.945,442.101L399.776,454.167C388.607,466.234,366.268,490.367,355.099,509.1C343.93,527.833,343.93,541.167,343.93,547.833L343.93,554.5" id="id_CliContext_WarpObservationAdapter_2" class="edge-thickness-normal edge-pattern-solid relation" style=";;;" data-edge="true" data-et="edge" data-id="id_CliContext_WarpObservationAdapter_2" data-points="W3sieCI6NDEwLjk0NTMxMjUsInkiOjQ0Mi4xMDA1NDE5MTI1Nzc3fSx7IngiOjM0My45Mjk2ODc1LCJ5Ijo1MTQuNX0seyJ4IjozNDMuOTI5Njg3NSwieSI6NTYwLjV9XQ==" marker-end="url(#my-svg_class-dependencyEnd)"/><path d="M778.609,442.101L789.779,454.167C800.948,466.234,823.286,490.367,834.456,507.35C845.625,524.333,845.625,534.167,845.625,539.083L845.625,544" id="id_CliContext_WarpOperationalReadAdapter_3" class="edge-thickness-normal edge-pattern-solid relation" style=";;;" data-edge="true" data-et="edge" data-id="id_CliContext_WarpOperationalReadAdapter_3" data-points="W3sieCI6Nzc4LjYwOTM3NSwieSI6NDQyLjEwMDU0MTkxMjU3Nzd9LHsieCI6ODQ1LjYyNSwieSI6NTE0LjV9LHsieCI6ODQ1LjYyNSwieSI6NTUwfV0=" marker-end="url(#my-svg_class-dependencyEnd)"/><path d="M778.609,311.268L870.493,345.14C962.378,379.012,1146.146,446.756,1238.03,487.295C1329.914,527.833,1329.914,541.167,1329.914,547.833L1329.914,554.5" id="id_CliContext_WarpSubstrateInspectionAdapter_4" class="edge-thickness-normal edge-pattern-solid relation" style=";;;" data-edge="true" data-et="edge" data-id="id_CliContext_WarpSubstrateInspectionAdapter_4" data-points="W3sieCI6Nzc4LjYwOTM3NSwieSI6MzExLjI2NzYzOTk0NzkyNjM0fSx7IngiOjEzMjkuOTE0MDYyNSwieSI6NTE0LjV9LHsieCI6MTMyOS45MTQwNjI1LCJ5Ijo1NjAuNX1d" marker-end="url(#my-svg_class-dependencyEnd)"/><path d="M343.93,680.5L343.93,688.167C343.93,695.833,343.93,711.167,355.002,724.307C366.075,737.447,388.221,748.394,399.293,753.868L410.366,759.341" id="id_WarpObservationAdapter_WarpGraphAdapter_5" class="edge-thickness-normal edge-pattern-solid relation" style=";;;" data-edge="true" data-et="edge" data-id="id_WarpObservationAdapter_WarpGraphAdapter_5" data-points="W3sieCI6MzQzLjkyOTY4NzUsInkiOjY4MC41fSx7IngiOjM0My45Mjk2ODc1LCJ5Ijo3MjYuNX0seyJ4Ijo0MTUuNzQ0OTQzOTI2NDExMywieSI6NzYyfV0=" marker-end="url(#my-svg_class-dependencyEnd)"/><path d="M845.625,691L845.625,696.917C845.625,702.833,845.625,714.667,834.552,726.057C823.479,737.447,801.334,748.394,790.261,753.868L779.188,759.341" id="id_WarpOperationalReadAdapter_WarpGraphAdapter_6" class="edge-thickness-normal edge-pattern-solid relation" style=";;;" data-edge="true" data-et="edge" data-id="id_WarpOperationalReadAdapter_WarpGraphAdapter_6" data-points="W3sieCI6ODQ1LjYyNSwieSI6NjkxfSx7IngiOjg0NS42MjUsInkiOjcyNi41fSx7IngiOjc3My44MDk3NDM1NzM1ODg4LCJ5Ijo3NjJ9XQ==" marker-end="url(#my-svg_class-dependencyEnd)"/><path d="M1329.914,680.5L1329.914,688.167C1329.914,695.833,1329.914,711.167,1240.665,733.887C1151.416,756.608,972.918,786.717,883.669,801.771L794.42,816.825" id="id_WarpSubstrateInspectionAdapter_WarpGraphAdapter_7" class="edge-thickness-normal edge-pattern-solid relation" style=";;;" data-edge="true" data-et="edge" data-id="id_WarpSubstrateInspectionAdapter_WarpGraphAdapter_7" data-points="W3sieCI6MTMyOS45MTQwNjI1LCJ5Ijo2ODAuNX0seyJ4IjoxMzI5LjkxNDA2MjUsInkiOjcyNi41fSx7IngiOjc4OC41MDM5MDYyNSwieSI6ODE3LjgyMjk1NzU3MDYwNX1d" marker-end="url(#my-svg_class-dependencyEnd)"/></g><g class="edgeLabels"><g class="edgeLabel" transform="translate(40.265625, 620.5)"><g class="label" data-id="id_CliContext_WarpGraphAdapter_1" transform="translate(-32.265625, -10.5)"><foreignObject width="64.53125" height="21"><div xmlns="http://www.w3.org/1999/xhtml" class="labelBkg" style="display: table-cell; white-space: nowrap; line-height: 1.5; max-width: 200px; text-align: center;"><span class="edgeLabel"><p>graphPort</p></span></div></foreignObject></g></g><g class="edgeLabel" transform="translate(343.9296875, 514.5)"><g class="label" data-id="id_CliContext_WarpObservationAdapter_2" transform="translate(-37.984375, -10.5)"><foreignObject width="75.96875" height="21"><div xmlns="http://www.w3.org/1999/xhtml" class="labelBkg" style="display: table-cell; white-space: nowrap; line-height: 1.5; max-width: 200px; text-align: center;"><span class="edgeLabel"><p>observation</p></span></div></foreignObject></g></g><g class="edgeLabel" transform="translate(845.625, 514.5)"><g class="label" data-id="id_CliContext_WarpOperationalReadAdapter_3" transform="translate(-52.5703125, -10.5)"><foreignObject width="105.140625" height="21"><div xmlns="http://www.w3.org/1999/xhtml" class="labelBkg" style="display: table-cell; white-space: nowrap; line-height: 1.5; max-width: 200px; text-align: center;"><span class="edgeLabel"><p>operationalRead</p></span></div></foreignObject></g></g><g class="edgeLabel" transform="translate(1329.9140625, 514.5)"><g class="label" data-id="id_CliContext_WarpSubstrateInspectionAdapter_4" transform="translate(-33.4765625, -10.5)"><foreignObject width="66.953125" height="21"><div xmlns="http://www.w3.org/1999/xhtml" class="labelBkg" style="display: table-cell; white-space: nowrap; line-height: 1.5; max-width: 200px; text-align: center;"><span class="edgeLabel"><p>inspection</p></span></div></foreignObject></g></g><g class="edgeLabel" transform="translate(343.9296875, 726.5)"><g class="label" data-id="id_WarpObservationAdapter_WarpGraphAdapter_5" transform="translate(-53.5, -10.5)"><foreignObject width="107" height="21"><div xmlns="http://www.w3.org/1999/xhtml" class="labelBkg" style="display: table-cell; white-space: nowrap; line-height: 1.5; max-width: 200px; text-align: center;"><span class="edgeLabel"><p>shared singleton</p></span></div></foreignObject></g></g><g class="edgeLabel" transform="translate(845.625, 726.5)"><g class="label" data-id="id_WarpOperationalReadAdapter_WarpGraphAdapter_6" transform="translate(-53.5, -10.5)"><foreignObject width="107" height="21"><div xmlns="http://www.w3.org/1999/xhtml" class="labelBkg" style="display: table-cell; white-space: nowrap; line-height: 1.5; max-width: 200px; text-align: center;"><span class="edgeLabel"><p>shared singleton</p></span></div></foreignObject></g></g><g class="edgeLabel" transform="translate(1329.9140625, 726.5)"><g class="label" data-id="id_WarpSubstrateInspectionAdapter_WarpGraphAdapter_7" transform="translate(-53.5, -10.5)"><foreignObject width="107" height="21"><div xmlns="http://www.w3.org/1999/xhtml" class="labelBkg" style="display: table-cell; white-space: nowrap; line-height: 1.5; max-width: 200px; text-align: center;"><span class="edgeLabel"><p>shared singleton</p></span></div></foreignObject></g></g></g><g class="nodes"><g class="node default" id="classId-CliContext-0" transform="translate(594.77734375, 243.5)"><g class="basic label-container"><path d="M-183.83203125 -235.5 L183.83203125 -235.5 L183.83203125 235.5 L-183.83203125 235.5" stroke="none" stroke-width="0" fill="#eee" style=""/><path d="M-183.83203125 -235.5 C-41.42747403795562 -235.5, 100.97708317408876 -235.5, 183.83203125 -235.5 M-183.83203125 -235.5 C-53.42272520487049 -235.5, 76.98658084025902 -235.5, 183.83203125 -235.5 M183.83203125 -235.5 C183.83203125 -128.39545139727466, 183.83203125 -21.29090279454934, 183.83203125 235.5 M183.83203125 -235.5 C183.83203125 -134.44000104677446, 183.83203125 -33.38000209354888, 183.83203125 235.5 M183.83203125 235.5 C78.2739271621705 235.5, -27.28417692565901 235.5, -183.83203125 235.5 M183.83203125 235.5 C89.61972569648461 235.5, -4.592579857030785 235.5, -183.83203125 235.5 M-183.83203125 235.5 C-183.83203125 59.20658181684783, -183.83203125 -117.08683636630434, -183.83203125 -235.5 M-183.83203125 235.5 C-183.83203125 55.084128351617466, -183.83203125 -125.33174329676507, -183.83203125 -235.5" stroke="#999" stroke-width="1.3" fill="none" stroke-dasharray="0 0" style=""/></g><g class="annotation-group text" transform="translate(0, -211.5)"/><g class="label-group text" transform="translate(-36.3046875, -211.5)"><g class="label" style="font-weight: bolder" transform="translate(0,-10.5)"><foreignObject width="72.609375" height="21"><div xmlns="http://www.w3.org/1999/xhtml" style="display: table-cell; white-space: nowrap; line-height: 1.5; max-width: 120px; text-align: center;"><span class="nodeLabel markdown-node-label" style=""><p>CliContext</p></span></div></foreignObject></g></g><g class="members-group text" transform="translate(-171.83203125, -166.5)"><g class="label" style="" transform="translate(0,-10.5)"><foreignObject width="102.203125" height="21"><div xmlns="http://www.w3.org/1999/xhtml" style="display: table-cell; white-space: nowrap; line-height: 1.5; max-width: 156px; text-align: center;"><span class="nodeLabel markdown-node-label" style=""><p>+agentId: string</p></span></div></foreignObject></g><g class="label" style="" transform="translate(0,10.5)"><foreignObject width="79.953125" height="21"><div xmlns="http://www.w3.org/1999/xhtml" style="display: table-cell; white-space: nowrap; line-height: 1.5; max-width: 135px; text-align: center;"><span class="nodeLabel markdown-node-label" style=""><p>+cwd: string</p></span></div></foreignObject></g><g class="label" style="" transform="translate(0,31.5)"><foreignObject width="128.71875" height="21"><div xmlns="http://www.w3.org/1999/xhtml" style="display: table-cell; white-space: nowrap; line-height: 1.5; max-width: 183px; text-align: center;"><span class="nodeLabel markdown-node-label" style=""><p>+graphName: string</p></span></div></foreignObject></g><g class="label" style="" transform="translate(0,52.5)"><foreignObject width="172.046875" height="21"><div xmlns="http://www.w3.org/1999/xhtml" style="display: table-cell; white-space: nowrap; line-height: 1.5; max-width: 230px; text-align: center;"><span class="nodeLabel markdown-node-label" style=""><p>+identity: ResolvedIdentity</p></span></div></foreignObject></g><g class="label" style="" transform="translate(0,73.5)"><foreignObject width="94.609375" height="21"><div xmlns="http://www.w3.org/1999/xhtml" style="display: table-cell; white-space: nowrap; line-height: 1.5; max-width: 149px; text-align: center;"><span class="nodeLabel markdown-node-label" style=""><p>+json: boolean</p></span></div></foreignObject></g><g class="label" style="" transform="translate(0,94.5)"><foreignObject width="205.6875" height="21"><div xmlns="http://www.w3.org/1999/xhtml" style="display: table-cell; white-space: nowrap; line-height: 1.5; max-width: 261px; text-align: center;"><span class="nodeLabel markdown-node-label" style=""><p>+graphPort: WarpGraphAdapter</p></span></div></foreignObject></g><g class="label" style="" transform="translate(0,115.5)"><foreignObject width="197.84375" height="21"><div xmlns="http://www.w3.org/1999/xhtml" style="display: table-cell; white-space: nowrap; line-height: 1.5; max-width: 251px; text-align: center;"><span class="nodeLabel markdown-node-label" style=""><p>+observation: ObservationPort</p></span></div></foreignObject></g><g class="label" style="" transform="translate(0,136.5)"><foreignObject width="256.171875" height="21"><div xmlns="http://www.w3.org/1999/xhtml" style="display: table-cell; white-space: nowrap; line-height: 1.5; max-width: 312px; text-align: center;"><span class="nodeLabel markdown-node-label" style=""><p>+operationalRead: OperationalReadPort</p></span></div></foreignObject></g><g class="label" style="" transform="translate(0,157.5)"><foreignObject width="240.296875" height="21"><div xmlns="http://www.w3.org/1999/xhtml" style="display: table-cell; white-space: nowrap; line-height: 1.5; max-width: 291px; text-align: center;"><span class="nodeLabel markdown-node-label" style=""><p>+inspection: SubstrateInspectionPort</p></span></div></foreignObject></g><g class="label" style="" transform="translate(0,178.5)"><foreignObject width="177.109375" height="21"><div xmlns="http://www.w3.org/1999/xhtml" style="display: table-cell; white-space: nowrap; line-height: 1.5; max-width: 235px; text-align: center;"><span class="nodeLabel markdown-node-label" style=""><p>+logger: DiagnosticLogPort</p></span></div></foreignObject></g><g class="label" style="" transform="translate(0,199.5)"><foreignObject width="106.515625" height="21"><div xmlns="http://www.w3.org/1999/xhtml" style="display: table-cell; white-space: nowrap; line-height: 1.5; max-width: 162px; text-align: center;"><span class="nodeLabel markdown-node-label" style=""><p>+style: StylePort</p></span></div></foreignObject></g></g><g class="methods-group text" transform="translate(-171.83203125, 88.5)"><g class="label" style="" transform="translate(0,-10.5)"><foreignObject width="100.84375" height="21"><div xmlns="http://www.w3.org/1999/xhtml" style="display: table-cell; white-space: nowrap; line-height: 1.5; max-width: 158px; text-align: center;"><span class="nodeLabel markdown-node-label" style=""><p>+ok(msg) : void</p></span></div></foreignObject></g><g class="label" style="" transform="translate(0,10.5)"><foreignObject width="116.546875" height="21"><div xmlns="http://www.w3.org/1999/xhtml" style="display: table-cell; white-space: nowrap; line-height: 1.5; max-width: 174px; text-align: center;"><span class="nodeLabel markdown-node-label" style=""><p>+warn(msg) : void</p></span></div></foreignObject></g><g class="label" style="" transform="translate(0,31.5)"><foreignObject width="112.875" height="21"><div xmlns="http://www.w3.org/1999/xhtml" style="display: table-cell; white-space: nowrap; line-height: 1.5; max-width: 170px; text-align: center;"><span class="nodeLabel markdown-node-label" style=""><p>+fail(msg) : never</p></span></div></foreignObject></g><g class="label" style="" transform="translate(0,52.5)"><foreignObject width="290.890625" height="21"><div xmlns="http://www.w3.org/1999/xhtml" style="display: table-cell; white-space: nowrap; line-height: 1.5; max-width: 346px; text-align: center;"><span class="nodeLabel markdown-node-label" style=""><p>+failWithData(msg, data, diagnostics) : never</p></span></div></foreignObject></g><g class="label" style="" transform="translate(0,73.5)"><foreignObject width="215.9375" height="21"><div xmlns="http://www.w3.org/1999/xhtml" style="display: table-cell; white-space: nowrap; line-height: 1.5; max-width: 270px; text-align: center;"><span class="nodeLabel markdown-node-label" style=""><p>+jsonStart(command, data) : void</p></span></div></foreignObject></g><g class="label" style="" transform="translate(0,94.5)"><foreignObject width="307.359375" height="21"><div xmlns="http://www.w3.org/1999/xhtml" style="display: table-cell; white-space: nowrap; line-height: 1.5; max-width: 357px; text-align: center;"><span class="nodeLabel markdown-node-label" style=""><p>+jsonProgress(command, message, data) : void</p></span></div></foreignObject></g><g class="label" style="" transform="translate(0,115.5)"><foreignObject width="166.140625" height="21"><div xmlns="http://www.w3.org/1999/xhtml" style="display: table-cell; white-space: nowrap; line-height: 1.5; max-width: 223px; text-align: center;"><span class="nodeLabel markdown-node-label" style=""><p>+jsonOut(envelope) : void</p></span></div></foreignObject></g></g><g class="divider" style=""><path d="M-183.83203125 -190.5 C-97.2826501506772 -190.5, -10.733269051354398 -190.5, 183.83203125 -190.5 M-183.83203125 -190.5 C-68.26626383302025 -190.5, 47.299503583959506 -190.5, 183.83203125 -190.5" stroke="#999" stroke-width="1.3" fill="none" stroke-dasharray="0 0" style=""/></g><g class="divider" style=""><path d="M-183.83203125 64.5 C-99.3846308417801 64.5, -14.937230433560188 64.5, 183.83203125 64.5 M-183.83203125 64.5 C-68.57966844164642 64.5, 46.67269436670716 64.5, 183.83203125 64.5" stroke="#999" stroke-width="1.3" fill="none" stroke-dasharray="0 0" style=""/></g></g><g class="node default" id="classId-WarpGraphAdapter-1" transform="translate(594.77734375, 850.5)"><g class="basic label-container"><path d="M-193.7265625 -88.5 L193.7265625 -88.5 L193.7265625 88.5 L-193.7265625 88.5" stroke="none" stroke-width="0" fill="#eee" style=""/><path d="M-193.7265625 -88.5 C-66.48232967656413 -88.5, 60.76190314687173 -88.5, 193.7265625 -88.5 M-193.7265625 -88.5 C-69.81419467424675 -88.5, 54.0981731515065 -88.5, 193.7265625 -88.5 M193.7265625 -88.5 C193.7265625 -44.77993934804605, 193.7265625 -1.059878696092099, 193.7265625 88.5 M193.7265625 -88.5 C193.7265625 -26.744401566451486, 193.7265625 35.01119686709703, 193.7265625 88.5 M193.7265625 88.5 C52.11424306192873 88.5, -89.49807637614254 88.5, -193.7265625 88.5 M193.7265625 88.5 C93.33361401775618 88.5, -7.059334464487648 88.5, -193.7265625 88.5 M-193.7265625 88.5 C-193.7265625 48.11668576701475, -193.7265625 7.7333715340295015, -193.7265625 -88.5 M-193.7265625 88.5 C-193.7265625 21.422012905995146, -193.7265625 -45.65597418800971, -193.7265625 -88.5" stroke="#999" stroke-width="1.3" fill="none" stroke-dasharray="0 0" style=""/></g><g class="annotation-group text" transform="translate(0, -64.5)"/><g class="label-group text" transform="translate(-66.8125, -64.5)"><g class="label" style="font-weight: bolder" transform="translate(0,-10.5)"><foreignObject width="133.625" height="21"><div xmlns="http://www.w3.org/1999/xhtml" style="display: table-cell; white-space: nowrap; line-height: 1.5; max-width: 176px; text-align: center;"><span class="nodeLabel markdown-node-label" style=""><p>WarpGraphAdapter</p></span></div></foreignObject></g></g><g class="members-group text" transform="translate(-181.7265625, -19.5)"><g class="label" style="" transform="translate(0,-10.5)"><foreignObject width="281.03125" height="21"><div xmlns="http://www.w3.org/1999/xhtml" style="display: table-cell; white-space: nowrap; line-height: 1.5; max-width: 375px; text-align: center;"><span class="nodeLabel markdown-node-label" style=""><p>-graphPromise: Promise&lt;WarpGraph&gt; | null</p></span></div></foreignObject></g></g><g class="methods-group text" transform="translate(-181.7265625, 25.5)"><g class="label" style="" transform="translate(0,-10.5)"><foreignObject width="234.4375" height="21"><div xmlns="http://www.w3.org/1999/xhtml" style="display: table-cell; white-space: nowrap; line-height: 1.5; max-width: 328px; text-align: center;"><span class="nodeLabel markdown-node-label" style=""><p>+getGraph() : Promise&lt;WarpGraph&gt;</p></span></div></foreignObject></g><g class="label" style="" transform="translate(0,10.5)"><foreignObject width="296.640625" height="21"><div xmlns="http://www.w3.org/1999/xhtml" style="display: table-cell; white-space: nowrap; line-height: 1.5; max-width: 390px; text-align: center;"><span class="nodeLabel markdown-node-label" style=""><p>+openIsolatedGraph() : Promise&lt;WarpGraph&gt;</p></span></div></foreignObject></g><g class="label" style="" transform="translate(0,31.5)"><foreignObject width="90.46875" height="21"><div xmlns="http://www.w3.org/1999/xhtml" style="display: table-cell; white-space: nowrap; line-height: 1.5; max-width: 145px; text-align: center;"><span class="nodeLabel markdown-node-label" style=""><p>+reset() : void</p></span></div></foreignObject></g></g><g class="divider" style=""><path d="M-193.7265625 -43.5 C-66.98322006027885 -43.5, 59.76012237944229 -43.5, 193.7265625 -43.5 M-193.7265625 -43.5 C-109.14097169586249 -43.5, -24.55538089172498 -43.5, 193.7265625 -43.5" stroke="#999" stroke-width="1.3" fill="none" stroke-dasharray="0 0" style=""/></g><g class="divider" style=""><path d="M-193.7265625 1.5 C-61.42019801911587 1.5, 70.88616646176825 1.5, 193.7265625 1.5 M-193.7265625 1.5 C-70.83868922550324 1.5, 52.04918404899351 1.5, 193.7265625 1.5" stroke="#999" stroke-width="1.3" fill="none" stroke-dasharray="0 0" style=""/></g></g><g class="node default" id="classId-WarpObservationAdapter-2" transform="translate(343.9296875, 620.5)"><g class="basic label-container"><path d="M-236.3984375 -60 L236.3984375 -60 L236.3984375 60 L-236.3984375 60" stroke="none" stroke-width="0" fill="#eee" style=""/><path d="M-236.3984375 -60 C-70.82211307567076 -60, 94.75421134865849 -60, 236.3984375 -60 M-236.3984375 -60 C-99.83719106918193 -60, 36.72405536163615 -60, 236.3984375 -60 M236.3984375 -60 C236.3984375 -21.68669268802244, 236.3984375 16.62661462395512, 236.3984375 60 M236.3984375 -60 C236.3984375 -17.46919013218273, 236.3984375 25.061619735634537, 236.3984375 60 M236.3984375 60 C119.16471516369764 60, 1.9309928273952721 60, -236.3984375 60 M236.3984375 60 C79.93921919970316 60, -76.51999910059368 60, -236.3984375 60 M-236.3984375 60 C-236.3984375 28.704945379334585, -236.3984375 -2.590109241330829, -236.3984375 -60 M-236.3984375 60 C-236.3984375 19.923392075216064, -236.3984375 -20.15321584956787, -236.3984375 -60" stroke="#999" stroke-width="1.3" fill="none" stroke-dasharray="0 0" style=""/></g><g class="annotation-group text" transform="translate(0, -36)"/><g class="label-group text" transform="translate(-88.046875, -36)"><g class="label" style="font-weight: bolder" transform="translate(0,-10.5)"><foreignObject width="176.09375" height="21"><div xmlns="http://www.w3.org/1999/xhtml" style="display: table-cell; white-space: nowrap; line-height: 1.5; max-width: 214px; text-align: center;"><span class="nodeLabel markdown-node-label" style=""><p>WarpObservationAdapter</p></span></div></foreignObject></g></g><g class="members-group text" transform="translate(-224.3984375, 9)"/><g class="methods-group text" transform="translate(-224.3984375, 39)"><g class="label" style="" transform="translate(0,-10.5)"><foreignObject width="360.75" height="21"><div xmlns="http://www.w3.org/1999/xhtml" style="display: table-cell; white-space: nowrap; line-height: 1.5; max-width: 447px; text-align: center;"><span class="nodeLabel markdown-node-label" style=""><p>+openSession(request) : Promise&lt;ObservationSession&gt;</p></span></div></foreignObject></g></g><g class="divider" style=""><path d="M-236.3984375 -15 C-103.50560021021607 -15, 29.387237079567853 -15, 236.3984375 -15 M-236.3984375 -15 C-127.17496563456665 -15, -17.951493769133293 -15, 236.3984375 -15" stroke="#999" stroke-width="1.3" fill="none" stroke-dasharray="0 0" style=""/></g><g class="divider" style=""><path d="M-236.3984375 9 C-134.69316312396666 9, -32.98788874793331 9, 236.3984375 9 M-236.3984375 9 C-95.13946367334773 9, 46.11951015330453 9, 236.3984375 9" stroke="#999" stroke-width="1.3" fill="none" stroke-dasharray="0 0" style=""/></g></g><g class="node default" id="classId-WarpOperationalReadAdapter-3" transform="translate(845.625, 620.5)"><g class="basic label-container"><path d="M-215.296875 -70.5 L215.296875 -70.5 L215.296875 70.5 L-215.296875 70.5" stroke="none" stroke-width="0" fill="#eee" style=""/><path d="M-215.296875 -70.5 C-78.57371088067242 -70.5, 58.149453238655155 -70.5, 215.296875 -70.5 M-215.296875 -70.5 C-68.45259526911477 -70.5, 78.39168446177047 -70.5, 215.296875 -70.5 M215.296875 -70.5 C215.296875 -19.400954719292287, 215.296875 31.698090561415427, 215.296875 70.5 M215.296875 -70.5 C215.296875 -39.71332255583001, 215.296875 -8.926645111660022, 215.296875 70.5 M215.296875 70.5 C94.01141882131071 70.5, -27.274037357378575 70.5, -215.296875 70.5 M215.296875 70.5 C118.3119396481811 70.5, 21.32700429636219 70.5, -215.296875 70.5 M-215.296875 70.5 C-215.296875 41.39778475547115, -215.296875 12.295569510942308, -215.296875 -70.5 M-215.296875 70.5 C-215.296875 21.716646957504842, -215.296875 -27.066706084990315, -215.296875 -70.5" stroke="#999" stroke-width="1.3" fill="none" stroke-dasharray="0 0" style=""/></g><g class="annotation-group text" transform="translate(0, -46.5)"/><g class="label-group text" transform="translate(-103.484375, -46.5)"><g class="label" style="font-weight: bolder" transform="translate(0,-10.5)"><foreignObject width="206.96875" height="21"><div xmlns="http://www.w3.org/1999/xhtml" style="display: table-cell; white-space: nowrap; line-height: 1.5; max-width: 244px; text-align: center;"><span class="nodeLabel markdown-node-label" style=""><p>WarpOperationalReadAdapter</p></span></div></foreignObject></g></g><g class="members-group text" transform="translate(-203.296875, -1.5)"/><g class="methods-group text" transform="translate(-203.296875, 28.5)"><g class="label" style="" transform="translate(0,-10.5)"><foreignObject width="297.15625" height="21"><div xmlns="http://www.w3.org/1999/xhtml" style="display: table-cell; white-space: nowrap; line-height: 1.5; max-width: 393px; text-align: center;"><span class="nodeLabel markdown-node-label" style=""><p>+getBriefing(perspective) : Promise&lt;Briefing&gt;</p></span></div></foreignObject></g><g class="label" style="" transform="translate(0,10.5)"><foreignObject width="303.109375" height="21"><div xmlns="http://www.w3.org/1999/xhtml" style="display: table-cell; white-space: nowrap; line-height: 1.5; max-width: 400px; text-align: center;"><span class="nodeLabel markdown-node-label" style=""><p>+getNext(criteria) : Promise&lt;ActionableItem[]&gt;</p></span></div></foreignObject></g></g><g class="divider" style=""><path d="M-215.296875 -25.5 C-44.62084205356172 -25.5, 126.05519089287657 -25.5, 215.296875 -25.5 M-215.296875 -25.5 C-74.80826156964406 -25.5, 65.68035186071188 -25.5, 215.296875 -25.5" stroke="#999" stroke-width="1.3" fill="none" stroke-dasharray="0 0" style=""/></g><g class="divider" style=""><path d="M-215.296875 -1.5 C-123.43273622498307 -1.5, -31.56859744996615 -1.5, 215.296875 -1.5 M-215.296875 -1.5 C-106.52450508511669 -1.5, 2.247864829766627 -1.5, 215.296875 -1.5" stroke="#999" stroke-width="1.3" fill="none" stroke-dasharray="0 0" style=""/></g></g><g class="node default" id="classId-WarpSubstrateInspectionAdapter-4" transform="translate(1329.9140625, 620.5)"><g class="basic label-container"><path d="M-218.9921875 -60 L218.9921875 -60 L218.9921875 60 L-218.9921875 60" stroke="none" stroke-width="0" fill="#eee" style=""/><path d="M-218.9921875 -60 C-49.76791949815268 -60, 119.45634850369464 -60, 218.9921875 -60 M-218.9921875 -60 C-49.40047547855016 -60, 120.19123654289967 -60, 218.9921875 -60 M218.9921875 -60 C218.9921875 -15.991297242812038, 218.9921875 28.017405514375923, 218.9921875 60 M218.9921875 -60 C218.9921875 -22.356185465546055, 218.9921875 15.28762906890789, 218.9921875 60 M218.9921875 60 C118.3917220391267 60, 17.79125657825341 60, -218.9921875 60 M218.9921875 60 C44.95229371691704 60, -129.08760006616592 60, -218.9921875 60 M-218.9921875 60 C-218.9921875 32.28467441579665, -218.9921875 4.569348831593302, -218.9921875 -60 M-218.9921875 60 C-218.9921875 33.59332059585454, -218.9921875 7.186641191709086, -218.9921875 -60" stroke="#999" stroke-width="1.3" fill="none" stroke-dasharray="0 0" style=""/></g><g class="annotation-group text" transform="translate(0, -36)"/><g class="label-group text" transform="translate(-116.109375, -36)"><g class="label" style="font-weight: bolder" transform="translate(0,-10.5)"><foreignObject width="232.21875" height="21"><div xmlns="http://www.w3.org/1999/xhtml" style="display: table-cell; white-space: nowrap; line-height: 1.5; max-width: 262px; text-align: center;"><span class="nodeLabel markdown-node-label" style=""><p>WarpSubstrateInspectionAdapter</p></span></div></foreignObject></g></g><g class="members-group text" transform="translate(-206.9921875, 9)"/><g class="methods-group text" transform="translate(-206.9921875, 39)"><g class="label" style="" transform="translate(0,-10.5)"><foreignObject width="297.875" height="21"><div xmlns="http://www.w3.org/1999/xhtml" style="display: table-cell; white-space: nowrap; line-height: 1.5; max-width: 390px; text-align: center;"><span class="nodeLabel markdown-node-label" style=""><p>+inspectGraph() : Promise&lt;InspectionReport&gt;</p></span></div></foreignObject></g></g><g class="divider" style=""><path d="M-218.9921875 -15 C-65.43783468990009 -15, 88.11651812019983 -15, 218.9921875 -15 M-218.9921875 -15 C-55.64389417141976 -15, 107.70439915716048 -15, 218.9921875 -15" stroke="#999" stroke-width="1.3" fill="none" stroke-dasharray="0 0" style=""/></g><g class="divider" style=""><path d="M-218.9921875 9 C-105.84275113316838 9, 7.306685233663245 9, 218.9921875 9 M-218.9921875 9 C-106.93460729508288 9, 5.122972909834232 9, 218.9921875 9" stroke="#999" stroke-width="1.3" fill="none" stroke-dasharray="0 0" style=""/></g></g></g></g></g></svg>