<?xml version="1.0" encoding="UTF-8" standalone="no"?>
<!DOCTYPE svg PUBLIC "-//W3C//DTD SVG 1.1//EN"
 "http://www.w3.org/Graphics/SVG/1.1/DTD/svg11.dtd">
<!-- Generated by graphviz version 14.1.2 (20260124.0452)
 -->
<!-- Title: WARPGraph Pages: 1 -->
<svg width="1912pt" height="671pt"
 viewBox="0.00 0.00 1912.00 671.00" xmlns="http://www.w3.org/2000/svg" xmlns:xlink="http://www.w3.org/1999/xlink">
<g id="graph0" class="graph" transform="scale(1 1) rotate(0) translate(43.2 627.41)">
<title>WARPGraph</title>
<polygon fill="#0b0f14" stroke="none" points="-43.2,43.2 -43.2,-627.41 1869.2,-627.41 1869.2,43.2 -43.2,43.2"/>
<text xml:space="preserve" text-anchor="middle" x="913" y="-567.86" font-family="Helvetica,sans-Serif" font-size="13.00" fill="#e6edf3">Conceptual XYPH WARP Graph — Live snapshot (877 nodes, 1201 edges)</text>
<text xml:space="preserve" text-anchor="middle" x="913" y="-554.36" font-family="Helvetica,sans-Serif" font-size="13.00" fill="#e6edf3">Writers: agent.prime (lamport 943) · human.james (lamport 900) · agent.claude (lamport 370)</text>
<g id="clust1" class="cluster">
<title>cluster_intent</title>
<polygon fill="#0b0f14" stroke="#74c0fc" stroke-dasharray="1,5" points="8,-444.31 8,-541.21 396,-541.21 396,-444.31 8,-444.31"/>
<text xml:space="preserve" text-anchor="middle" x="202" y="-524.86" font-family="Helvetica,sans-Serif" font-size="13.00" fill="#74c0fc">Causal Root</text>
</g>
<g id="clust2" class="cluster">
<title>cluster_campaign</title>
<polygon fill="#0b0f14" stroke="#da77f2" stroke-dasharray="1,5" points="150,-163.43 150,-249.08 565,-249.08 565,-163.43 150,-163.43"/>
<text xml:space="preserve" text-anchor="middle" x="357.5" y="-232.73" font-family="Helvetica,sans-Serif" font-size="13.00" fill="#da77f2">Campaign (Milestone)</text>
</g>
<g id="clust3" class="cluster">
<title>cluster_tasks</title>
<polygon fill="#0b0f14" stroke="#69db7c" stroke-dasharray="1,5" points="88,-299.76 88,-396.66 570,-396.66 570,-299.76 88,-299.76"/>
<text xml:space="preserve" text-anchor="middle" x="329" y="-380.31" font-family="Helvetica,sans-Serif" font-size="13.00" fill="#69db7c">Quests (task:*)</text>
</g>
<g id="clust4" class="cluster">
<title>cluster_trace</title>
<polygon fill="#0b0f14" stroke="#ffd43b" stroke-dasharray="1,5" points="988,-8 988,-396.66 1380,-396.66 1380,-8 988,-8"/>
<text xml:space="preserve" text-anchor="middle" x="1184" y="-380.31" font-family="Helvetica,sans-Serif" font-size="13.00" fill="#ffd43b">Traceability Chain</text>
</g>
<g id="clust5" class="cluster">
<title>cluster_review</title>
<polygon fill="#0b0f14" stroke="#ff6b6b" stroke-dasharray="1,5" points="590,-299.76 590,-541.21 980,-541.21 980,-299.76 590,-299.76"/>
<text xml:space="preserve" text-anchor="middle" x="785" y="-524.86" font-family="Helvetica,sans-Serif" font-size="13.00" fill="#ff6b6b">Submission Lifecycle</text>
</g>
<g id="clust6" class="cluster">
<title>cluster_git</title>
<polygon fill="#0b0f14" stroke="#495057" stroke-dasharray="1,5" points="1399,-154.4 1399,-400.06 1818,-400.06 1818,-154.4 1399,-154.4"/>
<text xml:space="preserve" text-anchor="middle" x="1608.5" y="-383.71" font-family="Helvetica,sans-Serif" font-size="13.00" fill="#868e96">Git Object Store (refs/warp/xyph/*)</text>
</g>
<!-- intent_ap -->
<g id="node1" class="node">
<title>intent_ap</title>
<path fill="#1a3a5c" stroke="#74c0fc" stroke-width="2" d="M167.53,-511.71C167.53,-511.71 28.47,-511.71 28.47,-511.71 22.47,-511.71 16.47,-505.71 16.47,-499.71 16.47,-499.71 16.47,-464.31 16.47,-464.31 16.47,-458.31 22.47,-452.31 28.47,-452.31 28.47,-452.31 167.53,-452.31 167.53,-452.31 173.53,-452.31 179.53,-458.31 179.53,-464.31 179.53,-464.31 179.53,-499.71 179.53,-499.71 179.53,-505.71 173.53,-511.71 167.53,-511.71"/>
<text xml:space="preserve" text-anchor="middle" x="98" y="-495.01" font-family="Helvetica,sans-Serif" font-size="10.00" fill="#74c0fc">intent:AGENT&#45;PROTOCOL</text>
<text xml:space="preserve" text-anchor="middle" x="98" y="-483.76" font-family="Helvetica,sans-Serif" font-size="10.00" fill="#74c0fc">title: Structured agent interface</text>
<text xml:space="preserve" text-anchor="middle" x="98" y="-472.51" font-family="Helvetica,sans-Serif" font-size="10.00" fill="#74c0fc">requested_by: human.james</text>
<text xml:space="preserve" text-anchor="middle" x="98" y="-461.26" font-family="Helvetica,sans-Serif" font-size="10.00" fill="#74c0fc">created_at: 2026&#45;02&#45;28</text>
</g>
<!-- task_agt1 -->
<g id="node5" class="node">
<title>task_agt1</title>
<path fill="#1a3a24" stroke="#69db7c" d="M384.27,-367.16C384.27,-367.16 273.73,-367.16 273.73,-367.16 267.73,-367.16 261.73,-361.16 261.73,-355.16 261.73,-355.16 261.73,-319.76 261.73,-319.76 261.73,-313.76 267.73,-307.76 273.73,-307.76 273.73,-307.76 384.27,-307.76 384.27,-307.76 390.27,-307.76 396.27,-313.76 396.27,-319.76 396.27,-319.76 396.27,-355.16 396.27,-355.16 396.27,-361.16 390.27,-367.16 384.27,-367.16"/>
<text xml:space="preserve" text-anchor="middle" x="329" y="-350.46" font-family="Helvetica,sans-Serif" font-size="10.00" fill="#69db7c">task:AGT&#45;001</text>
<text xml:space="preserve" text-anchor="middle" x="329" y="-339.21" font-family="Helvetica,sans-Serif" font-size="10.00" fill="#69db7c">Agent briefing command</text>
<text xml:space="preserve" text-anchor="middle" x="329" y="-327.96" font-family="Helvetica,sans-Serif" font-size="10.00" fill="#69db7c">status: DONE</text>
<text xml:space="preserve" text-anchor="middle" x="329" y="-316.71" font-family="Helvetica,sans-Serif" font-size="10.00" fill="#69db7c">hours: 0</text>
</g>
<!-- intent_ap&#45;&gt;task_agt1 -->
<g id="edge1" class="edge">
<title>intent_ap&#45;&gt;task_agt1</title>
<path fill="none" stroke="#74c0fc" d="M155.08,-451.43C182.44,-436.74 215.39,-418.27 244,-400.06 257.49,-391.48 271.71,-381.55 284.58,-372.2"/>
<polygon fill="#74c0fc" stroke="#74c0fc" points="285.75,-374.38 289.96,-368.26 282.86,-370.42 285.75,-374.38"/>
<text xml:space="preserve" text-anchor="middle" x="262.38" y="-410.76" font-family="Helvetica,sans-Serif" font-size="9.00" fill="#74c0fc">authorized&#45;by ←</text>
</g>
<!-- task_agt3 -->
<g id="node6" class="node">
<title>task_agt3</title>
<path fill="#1a3a24" stroke="#69db7c" d="M213.65,-361.53C213.65,-361.53 108.35,-361.53 108.35,-361.53 102.35,-361.53 96.35,-355.53 96.35,-349.53 96.35,-349.53 96.35,-325.38 96.35,-325.38 96.35,-319.38 102.35,-313.38 108.35,-313.38 108.35,-313.38 213.65,-313.38 213.65,-313.38 219.65,-313.38 225.65,-319.38 225.65,-325.38 225.65,-325.38 225.65,-349.53 225.65,-349.53 225.65,-355.53 219.65,-361.53 213.65,-361.53"/>
<text xml:space="preserve" text-anchor="middle" x="161" y="-344.83" font-family="Helvetica,sans-Serif" font-size="10.00" fill="#69db7c">task:AGT&#45;003</text>
<text xml:space="preserve" text-anchor="middle" x="161" y="-333.58" font-family="Helvetica,sans-Serif" font-size="10.00" fill="#69db7c">next command (JSON)</text>
<text xml:space="preserve" text-anchor="middle" x="161" y="-322.33" font-family="Helvetica,sans-Serif" font-size="10.00" fill="#69db7c">status: DONE</text>
</g>
<!-- intent_ap&#45;&gt;task_agt3 -->
<g id="edge2" class="edge">
<title>intent_ap&#45;&gt;task_agt3</title>
<path fill="none" stroke="#74c0fc" d="M111.05,-451.48C121.66,-427.49 136.56,-393.76 147.33,-369.4"/>
<polygon fill="#74c0fc" stroke="#74c0fc" points="149.47,-370.62 150.05,-363.23 144.98,-368.64 149.47,-370.62"/>
<text xml:space="preserve" text-anchor="middle" x="163.25" y="-410.76" font-family="Helvetica,sans-Serif" font-size="9.00" fill="#74c0fc">authorized&#45;by ←</text>
</g>
<!-- intent_dash -->
<g id="node2" class="node">
<title>intent_dash</title>
<path fill="#1a3a5c" stroke="#74c0fc" stroke-width="2" d="M376.02,-506.09C376.02,-506.09 227.97,-506.09 227.97,-506.09 221.97,-506.09 215.97,-500.09 215.97,-494.09 215.97,-494.09 215.97,-469.94 215.97,-469.94 215.97,-463.94 221.97,-457.94 227.97,-457.94 227.97,-457.94 376.02,-457.94 376.02,-457.94 382.02,-457.94 388.02,-463.94 388.02,-469.94 388.02,-469.94 388.02,-494.09 388.02,-494.09 388.02,-500.09 382.02,-506.09 376.02,-506.09"/>
<text xml:space="preserve" text-anchor="middle" x="302" y="-489.39" font-family="Helvetica,sans-Serif" font-size="10.00" fill="#74c0fc">intent:DASHBOARD</text>
<text xml:space="preserve" text-anchor="middle" x="302" y="-478.14" font-family="Helvetica,sans-Serif" font-size="10.00" fill="#74c0fc">title: Build the WARP Dashboard</text>
<text xml:space="preserve" text-anchor="middle" x="302" y="-466.89" font-family="Helvetica,sans-Serif" font-size="10.00" fill="#74c0fc">requested_by: human.james</text>
</g>
<!-- task_bjу1 -->
<g id="node7" class="node">
<title>task_bjу1</title>
<path fill="#1a3a24" stroke="#69db7c" d="M550.02,-361.53C550.02,-361.53 443.98,-361.53 443.98,-361.53 437.98,-361.53 431.98,-355.53 431.98,-349.53 431.98,-349.53 431.98,-325.38 431.98,-325.38 431.98,-319.38 437.98,-313.38 443.98,-313.38 443.98,-313.38 550.02,-313.38 550.02,-313.38 556.02,-313.38 562.02,-319.38 562.02,-325.38 562.02,-325.38 562.02,-349.53 562.02,-349.53 562.02,-355.53 556.02,-361.53 550.02,-361.53"/>
<text xml:space="preserve" text-anchor="middle" x="497" y="-344.83" font-family="Helvetica,sans-Serif" font-size="10.00" fill="#69db7c">task:BJU&#45;001</text>
<text xml:space="preserve" text-anchor="middle" x="497" y="-333.58" font-family="Helvetica,sans-Serif" font-size="10.00" fill="#69db7c">bijou&#45;tui navigableTable</text>
<text xml:space="preserve" text-anchor="middle" x="497" y="-322.33" font-family="Helvetica,sans-Serif" font-size="10.00" fill="#69db7c">status: DONE</text>
</g>
<!-- intent_dash&#45;&gt;task_bjу1 -->
<g id="edge3" class="edge">
<title>intent_dash&#45;&gt;task_bjу1</title>
<path fill="none" stroke="#74c0fc" d="M324.33,-456.94C340.28,-441.03 363,-420.83 386.5,-408.06 397.69,-401.99 402.6,-405.72 414,-400.06 431.7,-391.27 449.53,-378.65 464.11,-367.11"/>
<polygon fill="#74c0fc" stroke="#74c0fc" points="465.48,-369.15 469.39,-362.85 462.4,-365.34 465.48,-369.15"/>
<text xml:space="preserve" text-anchor="middle" x="420.25" y="-410.76" font-family="Helvetica,sans-Serif" font-size="9.00" fill="#74c0fc">authorized&#45;by ←</text>
</g>
<!-- campaign_agent -->
<g id="node3" class="node">
<title>campaign_agent</title>
<path fill="#2d1a40" stroke="#da77f2" d="M321.9,-219.58C321.9,-219.58 170.1,-219.58 170.1,-219.58 164.1,-219.58 158.1,-213.58 158.1,-207.58 158.1,-207.58 158.1,-183.43 158.1,-183.43 158.1,-177.43 164.1,-171.43 170.1,-171.43 170.1,-171.43 321.9,-171.43 321.9,-171.43 327.9,-171.43 333.9,-177.43 333.9,-183.43 333.9,-183.43 333.9,-207.58 333.9,-207.58 333.9,-213.58 327.9,-219.58 321.9,-219.58"/>
<text xml:space="preserve" text-anchor="middle" x="246" y="-202.88" font-family="Helvetica,sans-Serif" font-size="10.00" fill="#da77f2">campaign:AGENT</text>
<text xml:space="preserve" text-anchor="middle" x="246" y="-191.63" font-family="Helvetica,sans-Serif" font-size="10.00" fill="#da77f2">title: Milestone 12: Agent Protocol</text>
<text xml:space="preserve" text-anchor="middle" x="246" y="-180.38" font-family="Helvetica,sans-Serif" font-size="10.00" fill="#da77f2">status: BACKLOG</text>
</g>
<!-- campaign_dash -->
<g id="node4" class="node">
<title>campaign_dash</title>
<path fill="#2d1a40" stroke="#da77f2" d="M544.52,-219.58C544.52,-219.58 381.48,-219.58 381.48,-219.58 375.48,-219.58 369.48,-213.58 369.48,-207.58 369.48,-207.58 369.48,-183.43 369.48,-183.43 369.48,-177.43 375.48,-171.43 381.48,-171.43 381.48,-171.43 544.52,-171.43 544.52,-171.43 550.52,-171.43 556.52,-177.43 556.52,-183.43 556.52,-183.43 556.52,-207.58 556.52,-207.58 556.52,-213.58 550.52,-219.58 544.52,-219.58"/>
<text xml:space="preserve" text-anchor="middle" x="463" y="-202.88" font-family="Helvetica,sans-Serif" font-size="10.00" fill="#da77f2">campaign:DASHBOARD</text>
<text xml:space="preserve" text-anchor="middle" x="463" y="-191.63" font-family="Helvetica,sans-Serif" font-size="10.00" fill="#da77f2">title: Milestone 5: WARP Dashboard</text>
<text xml:space="preserve" text-anchor="middle" x="463" y="-180.38" font-family="Helvetica,sans-Serif" font-size="10.00" fill="#da77f2">status: DONE</text>
</g>
<!-- task_agt1&#45;&gt;campaign_agent -->
<g id="edge4" class="edge">
<title>task_agt1&#45;&gt;campaign_agent</title>
<path fill="none" stroke="#da77f2" d="M274.77,-307.6C261.85,-297.91 249.72,-285.82 242.5,-271.36 235.96,-258.25 235.85,-242.18 237.78,-228.3"/>
<polygon fill="#da77f2" stroke="#da77f2" points="240.18,-228.79 238.95,-221.48 235.35,-227.97 240.18,-228.79"/>
<text xml:space="preserve" text-anchor="middle" x="264.25" y="-262.81" font-family="Helvetica,sans-Serif" font-size="9.00" fill="#adb5bd">belongs&#45;to</text>
</g>
<!-- req1 -->
<g id="node9" class="node">
<title>req1</title>
<path fill="#3a2800" stroke="#ffd43b" d="M1182.15,-225.2C1182.15,-225.2 1007.85,-225.2 1007.85,-225.2 1001.85,-225.2 995.85,-219.2 995.85,-213.2 995.85,-213.2 995.85,-177.8 995.85,-177.8 995.85,-171.8 1001.85,-165.8 1007.85,-165.8 1007.85,-165.8 1182.15,-165.8 1182.15,-165.8 1188.15,-165.8 1194.15,-171.8 1194.15,-177.8 1194.15,-177.8 1194.15,-213.2 1194.15,-213.2 1194.15,-219.2 1188.15,-225.2 1182.15,-225.2"/>
<text xml:space="preserve" text-anchor="middle" x="1095" y="-208.5" font-family="Helvetica,sans-Serif" font-size="10.00" fill="#ffd43b">req:AGT&#45;001</text>
<text xml:space="preserve" text-anchor="middle" x="1095" y="-197.25" font-family="Helvetica,sans-Serif" font-size="10.00" fill="#ffd43b">The CLI must emit a machine&#45;readable</text>
<text xml:space="preserve" text-anchor="middle" x="1095" y="-186" font-family="Helvetica,sans-Serif" font-size="10.00" fill="#ffd43b">briefing on session start</text>
<text xml:space="preserve" text-anchor="middle" x="1095" y="-174.75" font-family="Helvetica,sans-Serif" font-size="10.00" fill="#ffd43b">kind: functional &#160;priority: must</text>
</g>
<!-- task_agt1&#45;&gt;req1 -->
<g id="edge7" class="edge">
<title>task_agt1&#45;&gt;req1</title>
<path fill="none" stroke="#ffd43b" d="M319.12,-307.34C315.83,-291.8 315.46,-273.48 326.75,-261.61 336.23,-251.64 560.29,-250.12 574,-249.08 717.2,-238.23 882.06,-220.75 987.32,-208.95"/>
<polygon fill="#ffd43b" stroke="#ffd43b" points="987.55,-211.39 994.23,-208.18 987,-206.53 987.55,-211.39"/>
<text xml:space="preserve" text-anchor="middle" x="350.38" y="-262.81" font-family="Helvetica,sans-Serif" font-size="9.00" fill="#adb5bd">implements</text>
</g>
<!-- writer_ap -->
<g id="node16" class="node">
<title>writer_ap</title>
<path fill="#1c1c1c" stroke="#495057" d="M1586.78,-222.59C1586.78,-225.91 1546.54,-228.61 1497,-228.61 1447.46,-228.61 1407.22,-225.91 1407.22,-222.59 1407.22,-222.59 1407.22,-168.42 1407.22,-168.42 1407.22,-165.1 1447.46,-162.4 1497,-162.4 1546.54,-162.4 1586.78,-165.1 1586.78,-168.42 1586.78,-168.42 1586.78,-222.59 1586.78,-222.59"/>
<path fill="none" stroke="#495057" d="M1586.78,-222.59C1586.78,-219.27 1546.54,-216.57 1497,-216.57 1447.46,-216.57 1407.22,-219.27 1407.22,-222.59"/>
<text xml:space="preserve" text-anchor="middle" x="1497" y="-202.88" font-family="Helvetica,sans-Serif" font-size="10.00" fill="#868e96">refs/warp/xyph/writers/agent.prime</text>
<text xml:space="preserve" text-anchor="middle" x="1497" y="-191.63" font-family="Helvetica,sans-Serif" font-size="10.00" fill="#868e96">701 commits · lamport 943</text>
<text xml:space="preserve" text-anchor="middle" x="1497" y="-180.38" font-family="Helvetica,sans-Serif" font-size="10.00" fill="#868e96">eg&#45;schema: 2 · CBOR patches</text>
</g>
<!-- task_agt1&#45;&gt;writer_ap -->
<g id="edge15" class="edge">
<title>task_agt1&#45;&gt;writer_ap</title>
<path fill="none" stroke="#495057" stroke-dasharray="5,2" d="M351.6,-307.37C366.55,-290.56 387.74,-270.95 411.5,-261.61 462.04,-241.72 1336.16,-261.61 1389,-249.08 1407.26,-244.75 1426.03,-236.96 1442.69,-228.69"/>
<text xml:space="preserve" text-anchor="middle" x="449.75" y="-262.81" font-family="Helvetica,sans-Serif" font-size="9.00" fill="#adb5bd">persisted via patch</text>
</g>
<!-- task_agt3&#45;&gt;campaign_agent -->
<g id="edge5" class="edge">
<title>task_agt3&#45;&gt;campaign_agent</title>
<path fill="none" stroke="#da77f2" d="M166.29,-313.13C170.39,-297.8 176.99,-277.67 186.5,-261.61 194.06,-248.83 204.43,-236.39 214.4,-225.87"/>
<polygon fill="#da77f2" stroke="#da77f2" points="216.02,-227.72 219.14,-220.99 212.5,-224.3 216.02,-227.72"/>
<text xml:space="preserve" text-anchor="middle" x="208.25" y="-262.81" font-family="Helvetica,sans-Serif" font-size="9.00" fill="#adb5bd">belongs&#45;to</text>
</g>
<!-- task_bjу1&#45;&gt;campaign_dash -->
<g id="edge6" class="edge">
<title>task_bjу1&#45;&gt;campaign_dash</title>
<path fill="none" stroke="#da77f2" d="M499.83,-313.19C500.96,-298.23 501.15,-278.52 497,-261.61 494.09,-249.75 488.6,-237.65 482.87,-227.16"/>
<polygon fill="#da77f2" stroke="#da77f2" points="485.03,-226 479.43,-221.14 480.77,-228.43 485.03,-226"/>
<text xml:space="preserve" text-anchor="middle" x="520.36" y="-262.81" font-family="Helvetica,sans-Serif" font-size="9.00" fill="#adb5bd">belongs&#45;to</text>
</g>
<!-- story1 -->
<g id="node8" class="node">
<title>story1</title>
<path fill="#3a3000" stroke="#ffd43b" d="M1222.78,-367.16C1222.78,-367.16 1019.23,-367.16 1019.23,-367.16 1013.23,-367.16 1007.23,-361.16 1007.23,-355.16 1007.23,-355.16 1007.23,-319.76 1007.23,-319.76 1007.23,-313.76 1013.23,-307.76 1019.23,-307.76 1019.23,-307.76 1222.78,-307.76 1222.78,-307.76 1228.78,-307.76 1234.78,-313.76 1234.78,-319.76 1234.78,-319.76 1234.78,-355.16 1234.78,-355.16 1234.78,-361.16 1228.78,-367.16 1222.78,-367.16"/>
<text xml:space="preserve" text-anchor="middle" x="1121" y="-350.46" font-family="Helvetica,sans-Serif" font-size="10.00" fill="#ffd43b">story:AGT&#45;001</text>
<text xml:space="preserve" text-anchor="middle" x="1121" y="-339.21" font-family="Helvetica,sans-Serif" font-size="10.00" fill="#ffd43b">persona: AI agent operator</text>
<text xml:space="preserve" text-anchor="middle" x="1121" y="-327.96" font-family="Helvetica,sans-Serif" font-size="10.00" fill="#ffd43b">goal: structured session context</text>
<text xml:space="preserve" text-anchor="middle" x="1121" y="-316.71" font-family="Helvetica,sans-Serif" font-size="10.00" fill="#ffd43b">benefit: agents orient without re&#45;reading graph</text>
</g>
<!-- story1&#45;&gt;req1 -->
<g id="edge8" class="edge">
<title>story1&#45;&gt;req1</title>
<path fill="none" stroke="#ffd43b" d="M1115.61,-307.46C1111.64,-286.07 1106.2,-256.79 1101.91,-233.67"/>
<polygon fill="#ffd43b" stroke="#ffd43b" points="1104.34,-233.39 1100.66,-226.95 1099.53,-234.28 1104.34,-233.39"/>
<text xml:space="preserve" text-anchor="middle" x="1140.28" y="-262.81" font-family="Helvetica,sans-Serif" font-size="9.00" fill="#adb5bd">decomposes&#45;to</text>
</g>
<!-- crit1 -->
<g id="node10" class="node">
<title>crit1</title>
<path fill="#3a2800" stroke="#ffd43b" d="M1241.15,-86.65C1241.15,-86.65 1096.85,-86.65 1096.85,-86.65 1090.85,-86.65 1084.85,-80.65 1084.85,-74.65 1084.85,-74.65 1084.85,-28 1084.85,-28 1084.85,-22 1090.85,-16 1096.85,-16 1096.85,-16 1241.15,-16 1241.15,-16 1247.15,-16 1253.15,-22 1253.15,-28 1253.15,-28 1253.15,-74.65 1253.15,-74.65 1253.15,-80.65 1247.15,-86.65 1241.15,-86.65"/>
<text xml:space="preserve" text-anchor="middle" x="1169" y="-69.95" font-family="Helvetica,sans-Serif" font-size="10.00" fill="#ffd43b">criterion:AGT&#45;001</text>
<text xml:space="preserve" text-anchor="middle" x="1169" y="-58.7" font-family="Helvetica,sans-Serif" font-size="10.00" fill="#ffd43b">Given &#45;&#45;json flag, briefing emits</text>
<text xml:space="preserve" text-anchor="middle" x="1169" y="-47.45" font-family="Helvetica,sans-Serif" font-size="10.00" fill="#ffd43b">valid JSON with status, frontier,</text>
<text xml:space="preserve" text-anchor="middle" x="1169" y="-36.2" font-family="Helvetica,sans-Serif" font-size="10.00" fill="#ffd43b">and next&#45;actions fields</text>
<text xml:space="preserve" text-anchor="middle" x="1169" y="-24.95" font-family="Helvetica,sans-Serif" font-size="10.00" fill="#ffd43b">verifiable: true</text>
</g>
<!-- req1&#45;&gt;crit1 -->
<g id="edge9" class="edge">
<title>req1&#45;&gt;crit1</title>
<path fill="none" stroke="#ffd43b" d="M1110.15,-165.39C1120.79,-144.95 1135.18,-117.3 1147.07,-94.46"/>
<polygon fill="#ffd43b" stroke="#ffd43b" points="1149.24,-95.6 1150.3,-88.26 1144.89,-93.34 1149.24,-95.6"/>
<text xml:space="preserve" text-anchor="middle" x="1157.5" y="-120.85" font-family="Helvetica,sans-Serif" font-size="9.00" fill="#adb5bd">has&#45;criterion</text>
</g>
<!-- evidence1 -->
<g id="node11" class="node">
<title>evidence1</title>
<path fill="#3a1800" stroke="#ff9f43" d="M1359.65,-225.2C1359.65,-225.2 1242.35,-225.2 1242.35,-225.2 1236.35,-225.2 1230.35,-219.2 1230.35,-213.2 1230.35,-213.2 1230.35,-177.8 1230.35,-177.8 1230.35,-171.8 1236.35,-165.8 1242.35,-165.8 1242.35,-165.8 1359.65,-165.8 1359.65,-165.8 1365.65,-165.8 1371.65,-171.8 1371.65,-177.8 1371.65,-177.8 1371.65,-213.2 1371.65,-213.2 1371.65,-219.2 1365.65,-225.2 1359.65,-225.2"/>
<text xml:space="preserve" text-anchor="middle" x="1301" y="-208.5" font-family="Helvetica,sans-Serif" font-size="10.00" fill="#ff9f43">evidence:AGT&#45;001</text>
<text xml:space="preserve" text-anchor="middle" x="1301" y="-197.25" font-family="Helvetica,sans-Serif" font-size="10.00" fill="#ff9f43">kind: test</text>
<text xml:space="preserve" text-anchor="middle" x="1301" y="-186" font-family="Helvetica,sans-Serif" font-size="10.00" fill="#ff9f43">result: pass</text>
<text xml:space="preserve" text-anchor="middle" x="1301" y="-174.75" font-family="Helvetica,sans-Serif" font-size="10.00" fill="#ff9f43">produced_by: agent.prime</text>
</g>
<!-- evidence1&#45;&gt;crit1 -->
<g id="edge10" class="edge">
<title>evidence1&#45;&gt;crit1</title>
<path fill="none" stroke="#ff9f43" d="M1273.97,-165.39C1254.58,-144.51 1228.21,-116.1 1206.74,-92.98"/>
<polygon fill="#ff9f43" stroke="#ff9f43" points="1208.7,-91.49 1202.15,-88.03 1205.11,-94.82 1208.7,-91.49"/>
<text xml:space="preserve" text-anchor="middle" x="1253.58" y="-120.85" font-family="Helvetica,sans-Serif" font-size="9.00" fill="#adb5bd">verifies</text>
</g>
<!-- submission1 -->
<g id="node12" class="node">
<title>submission1</title>
<path fill="#3a1515" stroke="#ff6b6b" d="M750.15,-511.71C750.15,-511.71 629.85,-511.71 629.85,-511.71 623.85,-511.71 617.85,-505.71 617.85,-499.71 617.85,-499.71 617.85,-464.31 617.85,-464.31 617.85,-458.31 623.85,-452.31 629.85,-452.31 629.85,-452.31 750.15,-452.31 750.15,-452.31 756.15,-452.31 762.15,-458.31 762.15,-464.31 762.15,-464.31 762.15,-499.71 762.15,-499.71 762.15,-505.71 756.15,-511.71 750.15,-511.71"/>
<text xml:space="preserve" text-anchor="middle" x="690" y="-495.01" font-family="Helvetica,sans-Serif" font-size="10.00" fill="#ff6b6b">submission:0mm4fvum</text>
<text xml:space="preserve" text-anchor="middle" x="690" y="-483.76" font-family="Helvetica,sans-Serif" font-size="10.00" fill="#ff6b6b">submitted_by: agent.prime</text>
<text xml:space="preserve" text-anchor="middle" x="690" y="-472.51" font-family="Helvetica,sans-Serif" font-size="10.00" fill="#ff6b6b">submitted_at: 2026&#45;01&#45;28</text>
<text xml:space="preserve" text-anchor="middle" x="690" y="-461.26" font-family="Helvetica,sans-Serif" font-size="10.00" fill="#ff6b6b">quest_id: task:BJU&#45;001</text>
</g>
<!-- submission1&#45;&gt;task_bjу1 -->
<g id="edge11" class="edge">
<title>submission1&#45;&gt;task_bjу1</title>
<path fill="none" stroke="#ff6b6b" d="M650.48,-451.82C616.77,-426.93 568.62,-391.36 535.28,-366.73"/>
<polygon fill="#ff6b6b" stroke="#ff6b6b" points="537.12,-365.05 530.03,-362.86 534.21,-368.99 537.12,-365.05"/>
<text xml:space="preserve" text-anchor="middle" x="620.81" y="-410.01" font-family="Helvetica,sans-Serif" font-size="9.00" fill="#adb5bd">submits</text>
</g>
<!-- patchset1 -->
<g id="node13" class="node">
<title>patchset1</title>
<path fill="#3a1515" stroke="#ff6b6b" d="M959.52,-367.16C959.52,-367.16 796.48,-367.16 796.48,-367.16 790.48,-367.16 784.48,-361.16 784.48,-355.16 784.48,-355.16 784.48,-319.76 784.48,-319.76 784.48,-313.76 790.48,-307.76 796.48,-307.76 796.48,-307.76 959.52,-307.76 959.52,-307.76 965.52,-307.76 971.52,-313.76 971.52,-319.76 971.52,-319.76 971.52,-355.16 971.52,-355.16 971.52,-361.16 965.52,-367.16 959.52,-367.16"/>
<text xml:space="preserve" text-anchor="middle" x="878" y="-350.46" font-family="Helvetica,sans-Serif" font-size="10.00" fill="#ff6b6b">patchset:bju&#45;001&#45;ps</text>
<text xml:space="preserve" text-anchor="middle" x="878" y="-339.21" font-family="Helvetica,sans-Serif" font-size="10.00" fill="#ff6b6b">workspace_ref: refs/heads/feat/bijou</text>
<text xml:space="preserve" text-anchor="middle" x="878" y="-327.96" font-family="Helvetica,sans-Serif" font-size="10.00" fill="#ff6b6b">description: navigable table impl</text>
<text xml:space="preserve" text-anchor="middle" x="878" y="-316.71" font-family="Helvetica,sans-Serif" font-size="10.00" fill="#ff6b6b">authored_by: agent.prime</text>
</g>
<!-- submission1&#45;&gt;patchset1 -->
<g id="edge12" class="edge">
<title>submission1&#45;&gt;patchset1</title>
<path fill="none" stroke="#ff6b6b" d="M728.5,-451.82C758.79,-428.85 801.05,-396.81 832.92,-372.64"/>
<polygon fill="#ff6b6b" stroke="#ff6b6b" points="834.25,-374.71 838.35,-368.53 831.29,-370.8 834.25,-374.71"/>
<text xml:space="preserve" text-anchor="middle" x="810.25" y="-410.01" font-family="Helvetica,sans-Serif" font-size="9.00" fill="#adb5bd">has&#45;patchset</text>
</g>
<!-- decision1 -->
<g id="node14" class="node">
<title>decision1</title>
<path fill="#3a1515" stroke="#ff6b6b" d="M736.15,-367.16C736.15,-367.16 609.85,-367.16 609.85,-367.16 603.85,-367.16 597.85,-361.16 597.85,-355.16 597.85,-355.16 597.85,-319.76 597.85,-319.76 597.85,-313.76 603.85,-307.76 609.85,-307.76 609.85,-307.76 736.15,-307.76 736.15,-307.76 742.15,-307.76 748.15,-313.76 748.15,-319.76 748.15,-319.76 748.15,-355.16 748.15,-355.16 748.15,-361.16 742.15,-367.16 736.15,-367.16"/>
<text xml:space="preserve" text-anchor="middle" x="673" y="-350.46" font-family="Helvetica,sans-Serif" font-size="10.00" fill="#ff6b6b">decision:bju&#45;001&#45;dec</text>
<text xml:space="preserve" text-anchor="middle" x="673" y="-339.21" font-family="Helvetica,sans-Serif" font-size="10.00" fill="#ff6b6b">kind: merge</text>
<text xml:space="preserve" text-anchor="middle" x="673" y="-327.96" font-family="Helvetica,sans-Serif" font-size="10.00" fill="#ff6b6b">decided_by: human.james</text>
<text xml:space="preserve" text-anchor="middle" x="673" y="-316.71" font-family="Helvetica,sans-Serif" font-size="10.00" fill="#ff6b6b">rationale: LGTM, tests pass</text>
</g>
<!-- submission1&#45;&gt;decision1 -->
<g id="edge13" class="edge">
<title>submission1&#45;&gt;decision1</title>
<path fill="none" stroke="#ff6b6b" d="M686.52,-451.82C683.91,-429.91 680.31,-399.74 677.48,-376.03"/>
<polygon fill="#ff6b6b" stroke="#ff6b6b" points="679.92,-375.78 676.66,-369.11 675.05,-376.36 679.92,-375.78"/>
<text xml:space="preserve" text-anchor="middle" x="698.64" y="-410.01" font-family="Helvetica,sans-Serif" font-size="9.00" fill="#adb5bd">decides</text>
</g>
<!-- artifact1 -->
<g id="node15" class="node">
<title>artifact1</title>
<polygon fill="#1a2a3a" stroke="#66d9ef" points="576.27,-500.46 423.73,-500.46 423.73,-463.56 582.27,-463.56 582.27,-494.46 576.27,-500.46"/>
<polyline fill="none" stroke="#66d9ef" points="576.27,-500.46 576.27,-494.46"/>
<polyline fill="none" stroke="#66d9ef" points="582.27,-494.46 576.27,-494.46"/>
<text xml:space="preserve" text-anchor="middle" x="503" y="-483.76" font-family="Helvetica,sans-Serif" font-size="10.00" fill="#66d9ef">artifact:task:AGT&#45;001</text>
<text xml:space="preserve" text-anchor="middle" x="503" y="-472.51" font-family="Helvetica,sans-Serif" font-size="10.00" fill="#66d9ef">(Scroll — proof of completion)</text>
</g>
<!-- artifact1&#45;&gt;task_agt1 -->
<g id="edge14" class="edge">
<title>artifact1&#45;&gt;task_agt1</title>
<path fill="none" stroke="#66d9ef" d="M498.2,-463.24C492.64,-446.25 481.75,-421.32 463,-408.06 444.98,-395.32 434.37,-408.54 414,-400.06 397.81,-393.32 381.77,-382.94 368.07,-372.61"/>
<polygon fill="#66d9ef" stroke="#66d9ef" points="369.77,-370.83 362.74,-368.49 366.78,-374.71 369.77,-370.83"/>
<text xml:space="preserve" text-anchor="middle" x="486.14" y="-410.01" font-family="Helvetica,sans-Serif" font-size="9.00" fill="#adb5bd">fulfills</text>
</g>
<!-- writer_hj -->
<g id="node17" class="node">
<title>writer_hj</title>
<path fill="#1c1c1c" stroke="#495057" d="M1809.53,-216.26C1809.53,-218.8 1767.61,-220.87 1716,-220.87 1664.39,-220.87 1622.47,-218.8 1622.47,-216.26 1622.47,-216.26 1622.47,-174.75 1622.47,-174.75 1622.47,-172.2 1664.39,-170.13 1716,-170.13 1767.61,-170.13 1809.53,-172.2 1809.53,-174.75 1809.53,-174.75 1809.53,-216.26 1809.53,-216.26"/>
<path fill="none" stroke="#495057" d="M1809.53,-216.26C1809.53,-213.71 1767.61,-211.65 1716,-211.65 1664.39,-211.65 1622.47,-213.71 1622.47,-216.26"/>
<text xml:space="preserve" text-anchor="middle" x="1716" y="-197.25" font-family="Helvetica,sans-Serif" font-size="10.00" fill="#868e96">refs/warp/xyph/writers/human.james</text>
<text xml:space="preserve" text-anchor="middle" x="1716" y="-186" font-family="Helvetica,sans-Serif" font-size="10.00" fill="#868e96">185 commits · lamport 900</text>
</g>
<!-- checkpoint -->
<g id="node18" class="node">
<title>checkpoint</title>
<path fill="#1c1c1c" stroke="#495057" d="M1660.4,-364.54C1660.4,-367.86 1621.67,-370.56 1574,-370.56 1526.33,-370.56 1487.6,-367.86 1487.6,-364.54 1487.6,-364.54 1487.6,-310.38 1487.6,-310.38 1487.6,-307.05 1526.33,-304.36 1574,-304.36 1621.67,-304.36 1660.4,-307.05 1660.4,-310.38 1660.4,-310.38 1660.4,-364.54 1660.4,-364.54"/>
<path fill="none" stroke="#495057" d="M1660.4,-364.54C1660.4,-361.22 1621.67,-358.53 1574,-358.53 1526.33,-358.53 1487.6,-361.22 1487.6,-364.54"/>
<text xml:space="preserve" text-anchor="middle" x="1574" y="-344.83" font-family="Helvetica,sans-Serif" font-size="10.00" fill="#868e96">refs/warp/xyph/checkpoints/head</text>
<text xml:space="preserve" text-anchor="middle" x="1574" y="-333.58" font-family="Helvetica,sans-Serif" font-size="10.00" fill="#868e96">eg&#45;state&#45;hash: c1a1bc3d...</text>
<text xml:space="preserve" text-anchor="middle" x="1574" y="-322.33" font-family="Helvetica,sans-Serif" font-size="10.00" fill="#868e96">eg&#45;checkpoint: v5</text>
</g>
<!-- checkpoint&#45;&gt;writer_ap -->
<g id="edge16" class="edge">
<title>checkpoint&#45;&gt;writer_ap</title>
<path fill="none" stroke="#495057" stroke-dasharray="5,2" d="M1556.14,-304C1545.01,-283.77 1530.62,-257.61 1518.82,-236.16"/>
<polygon fill="#495057" stroke="#495057" points="1521.01,-235.07 1515.49,-230.11 1516.72,-237.43 1521.01,-235.07"/>
<text xml:space="preserve" text-anchor="middle" x="1562.56" y="-262.81" font-family="Helvetica,sans-Serif" font-size="9.00" fill="#adb5bd">materializes</text>
</g>
<!-- checkpoint&#45;&gt;writer_hj -->
<g id="edge17" class="edge">
<title>checkpoint&#45;&gt;writer_hj</title>
<path fill="none" stroke="#495057" stroke-dasharray="5,2" d="M1606.93,-304C1630.4,-280.87 1661.74,-249.98 1684.8,-227.25"/>
<polygon fill="#495057" stroke="#495057" points="1686.43,-229.08 1689.7,-222.43 1682.99,-225.59 1686.43,-229.08"/>
<text xml:space="preserve" text-anchor="middle" x="1674.01" y="-262.81" font-family="Helvetica,sans-Serif" font-size="9.00" fill="#adb5bd">materializes</text>
</g>
</g>
</svg>
